<?xml version="1.0" encoding="UTF-8"?>
<svg id="Layer_1" data-name="Layer 1" xmlns="http://www.w3.org/2000/svg" viewBox="0 0 250 250">
  <defs>
    <style>
      .cls-1 {
        fill: #fff;
      }

      .cls-2 {
        fill: none;
      }
    </style>
  </defs>
  <rect class="cls-2" width="250" height="250"/>
  <g>
    <path class="cls-1" d="m113.21,44.06c-61.58,12.28-77.84,92.18-24.26,126.08-26.3-26.73-13.3-73.84,23.55-82.96,0,0,48.8-13.37,48.8-13.37,6.36-1.63,12.14-4.58,17.24-8.76,12.57-10.15,18.75-27.02,15.66-42.89l-75.13,20.57c-1.94.53-3.9.94-5.87,1.33Z"/>
    <path class="cls-1" d="m160.56,100.55c-8.27-5.04-17.66-8.3-27.24-9.42-.96-.14-1.85-.22-2.77-.3-.62-.04-1.33-.08-2.02-.1-.62-.05-1.16-.06-1.7-.06-45.92-1.5-64.29,58.01-25.96,82.82-14.08-49.84,46.32-85.55,83.17-49.31-5.64-9.49-13.61-17.62-23.48-23.61Z"/>
    <path class="cls-1" d="m110.71,183.32c24.22,37.65,82.52,20.87,82.9-24.08h0c-.02-15.5-8.02-29.77-20.83-37.89,11.48,37.46-24.64,73.48-62.07,61.97Z"/>
    <path class="cls-1" d="m181.79,69.02c-5.67,4.65-12.12,7.94-19.17,9.75l-27.83,7.62c5.62.74,11.41,2.17,16.77,4.29,28.16,10.78,47.18,38.42,46.94,68.57h0s0,0,0,0c-.62,51.97-69.35,68.82-93.92,23.25-54.42-15.25-71.74-85.94-29.62-124.55-49.01,30.8-56.79,102.39-15.27,142.9,36,36,94.58,36,130.58,0,37.7-36.25,35.38-101.71-4.9-135.11-1.13,1.13-2.31,2.24-3.58,3.28Z"/>
  </g>
</svg>