<?xml version="1.0" encoding="UTF-8"?>
<svg id="Layer_1" data-name="Layer 1" xmlns="http://www.w3.org/2000/svg" xmlns:xlink="http://www.w3.org/1999/xlink" viewBox="0 0 500 167.01">
  <defs>
    <style>
      .cls-1 {
        fill: url(#linear-gradient-2);
      }

      .cls-2 {
        fill: #fff;
      }

      .cls-3 {
        fill: url(#linear-gradient-6);
      }

      .cls-4 {
        fill: url(#linear-gradient-5);
      }

      .cls-5 {
        fill: url(#linear-gradient-7);
      }

      .cls-6 {
        fill: url(#linear-gradient-3);
      }

      .cls-7 {
        fill: url(#linear-gradient);
      }

      .cls-8 {
        fill: url(#linear-gradient-4);
      }
    </style>
    <linearGradient id="linear-gradient" x1="89.25" y1="119.92" x2="78.85" y2="52.41" gradientUnits="userSpaceOnUse">
      <stop offset="0" stop-color="#006d00"/>
      <stop offset=".77" stop-color="#1ddb0c"/>
      <stop offset="1" stop-color="#c2ee0d"/>
    </linearGradient>
    <linearGradient id="linear-gradient-2" x1="59.65" y1="93.86" x2="122.4" y2="93.86" gradientUnits="userSpaceOnUse">
      <stop offset="0" stop-color="#006d00"/>
      <stop offset=".73" stop-color="#1ddb0c"/>
      <stop offset="1" stop-color="#c2ee0d"/>
    </linearGradient>
    <linearGradient id="linear-gradient-3" x1="-2327.04" y1="938.31" x2="-2264.29" y2="938.31" gradientTransform="translate(1021.93 2380.37) rotate(90)" xlink:href="#linear-gradient-2"/>
    <linearGradient id="linear-gradient-4" x1="38.24" y1="100.51" x2="144.33" y2="28.39" xlink:href="#linear-gradient-2"/>
    <linearGradient id="linear-gradient-5" x1="53.77" y1="89.73" x2="117.74" y2="21.76" gradientUnits="userSpaceOnUse">
      <stop offset=".52" stop-color="#1ddb0c"/>
      <stop offset="1" stop-color="#c2ee0d"/>
    </linearGradient>
    <linearGradient id="linear-gradient-6" x1="44.61" y1="83.48" x2="173.93" y2="83.48" gradientUnits="userSpaceOnUse">
      <stop offset="0" stop-color="#002c2b"/>
      <stop offset=".3" stop-color="#10a106"/>
      <stop offset=".71" stop-color="#1ddb0c"/>
    </linearGradient>
    <linearGradient id="linear-gradient-7" x1="82.3" y1="104.75" x2="83.15" y2="104.17" gradientUnits="userSpaceOnUse">
      <stop offset=".29" stop-color="#006d00"/>
      <stop offset=".6" stop-color="#10a106"/>
      <stop offset="1" stop-color="#c2ee0d"/>
    </linearGradient>
  </defs>
  <rect class="cls-2" width="500" height="167.01"/>
  <g>
    <g>
      <path class="cls-7" d="m54.05,112.98c16.33,16.33,42.82,16.33,59.16,0,16.33-16.33,16.33-42.82,0-59.16-16.34-16.34-42.82-16.33-59.16,0-16.33,16.33-16.34,42.82,0,59.16Zm44.37-44.37c8.17,8.17,8.17,21.41,0,29.58-8.17,8.17-21.41,8.17-29.58,0-8.17-8.17-8.17-21.41,0-29.58,8.17-8.17,21.41-8.17,29.58,0Z"/>
      <path class="cls-1" d="m83.64,62.48c11.55,0,20.91,9.37,20.91,20.92s-9.37,20.92-20.92,20.92-20.92-9.37-20.92-20.92,9.35-20.91,20.91-20.92c-17.32,0-31.37,14.05-31.37,31.37s13.18,30.49,29.76,31.33c.27,0,.53.02.81.03.27,0,.53,0,.81,0s.54,0,.81,0c16.96-.43,30.57-14.31,30.57-31.36s-14.03-31.36-31.35-31.37Z"/>
      <path class="cls-6" d="m115,93.88c0,11.55-9.37,20.91-20.92,20.91s-20.92-9.37-20.92-20.92,9.37-20.92,20.92-20.92,20.91,9.35,20.92,20.91c0-17.32-14.05-31.37-31.37-31.37s-30.49,13.18-31.33,29.76c0,.27-.02.53-.03.81,0,.27,0,.53,0,.81s0,.54,0,.81c.43,16.96,14.31,30.57,31.36,30.57s31.36-14.03,31.37-31.35Z"/>
      <path class="cls-8" d="m79.44,41.69c-.9.25-1.8.44-2.71.64-14.01,3.14-24.48,15.65-24.48,30.61,0,17.32,14.05,31.37,31.37,31.37-11.55,0-20.92-9.37-20.92-20.92,0-9.75,6.67-17.93,15.69-20.26l21.56-5.9c2.99-.77,5.72-2.18,8.03-4.08.79-.64,1.52-1.34,2.19-2.09,1.82-1.99,3.26-4.32,4.2-6.9.83-2.23,1.27-4.66,1.27-7.19,0-1.74-.22-3.42-.62-5.04l-35.59,9.75Z"/>
      <path class="cls-4" d="m115.02,31.94c.4,1.61.62,3.3.62,5.04,0,2.53-.44,4.96-1.27,7.19-.94,2.58-2.38,4.91-4.2,6.9-9.01-7.42-20.39-10.49-31.36-9.22l36.21-9.91Z"/>
      <path class="cls-3" d="m82.32,104.27c-2.39-.1-4.71-.45-6.94-1.05-9.96-2.71-17.93-10.18-21.34-19.82,3.93-11.11,13.93-19.34,26.01-20.71l-1.65.45c-9.02,2.32-15.69,10.51-15.69,20.26,0,8.48,5.05,15.79,12.31,19.07,2.25,1.02,4.71,1.64,7.3,1.81Z"/>
      <path class="cls-5" d="m83.62,104.31c-.44,0-.87-.02-1.31-.04.43.02.87.04,1.31.04Z"/>
    </g>
    <g>
      <path class="cls-2" d="m146.62,88.02c2.16-16.43,14.84-27.38,31.63-27.38s26.51,10.95,24.35,27.38c-2.16,16.43-14.84,27.38-31.56,27.38s-26.59-10.95-24.42-27.38Zm45.46,0c1.5-11.38-4.49-18.95-14.94-18.95s-18.5,7.57-20,18.95,4.56,18.95,15.01,18.95,18.43-7.57,19.93-18.95Z"/>
      <path class="cls-2" d="m250.31,95.08c-1.6,12.18-10.82,20.32-21.26,20.32-5.91,0-9.84-2.38-12.06-6.34l-2.78,21.11c-.03.2-.21.36-.41.36h0c-5.21,0-8.88-4.23-8.2-9.44l5.96-45.25h3.6c3.26,0,5.6,2.58,5.29,5.84h0c3.28-4.11,7.92-6.56,13.9-6.56,10.45,0,17.55,7.92,15.96,19.96Zm-10.17.07c.92-6.99-2.78-11.67-9.13-11.67s-11.28,4.68-12.21,11.74c-.93,7.06,2.7,11.75,9.12,11.75s11.28-4.68,12.22-11.82Z"/>
      <path class="cls-2" d="m254.06,75.85h.03c6.45,0,11.71,3.98,13.22,10l4.44,17.67,9.02-17.63c3.09-6.04,9.41-10.03,15.87-10.03h0l-21.47,38.83h-9.8l-11.31-38.83Z"/>
      <path class="cls-2" d="m330.2,90.26l-3.22,24.43h-3.89c-3.1,0-5.33-2.45-5.04-5.55h0c-3.12,4.04-7.89,6.27-12.64,6.27-8.07,0-12.84-4.83-11.89-12.03.99-7.49,8.26-12.39,18.2-12.39,2.67,0,5.58.29,8.46.86l.09-.72c.68-5.19-2.37-8.28-8.27-8.28-1.52,0-2.95.19-4.29.55-3.52.95-6.97-.37-8.69-3.21h0c4.63-3.39,9.74-5.04,16.52-5.04,9.94,0,15.86,5.98,14.65,15.13Zm-10.88,8.21c-2.45-.51-5.01-.79-7.24-.79-4.61,0-7.85,2.16-8.29,5.48s1.4,5.26,5.36,5.26c4.54,0,9.27-3.6,10.17-9.94Z"/>
      <path class="cls-2" d="m376.74,90.26l-3.22,24.43h-9.8l3.01-22.84c.66-5.04-2.5-8.36-7.98-8.36s-9.52,3.31-10.18,8.36l-3.01,22.84h-9.8l5.11-38.83h4.54c2.73,0,4.68,2.17,4.4,4.9h0c3.44-3.67,8.23-5.62,13.42-5.62,9.29,0,14.69,6.05,13.5,15.13Z"/>
      <path class="cls-2" d="m382.57,95.23c1.58-12.03,11-20.1,23.54-20.1,5.19,0,9.51,1.66,12.74,4.47l-.74.76c-2.81,2.9-6.8,4.1-10.41,3.37-.78-.16-1.62-.24-2.55-.24-6.48,0-11.49,4.68-12.42,11.74s2.78,11.75,9.4,11.75c1.29,0,2.51-.14,3.66-.42,3.97-.98,7.88.14,10.06,3.15l.22.3c-4.16,3.67-9.65,5.4-15.48,5.4-12.39,0-19.62-8.07-18.02-20.18Z"/>
      <path class="cls-2" d="m458.18,98.76h-28.1c0,5.48,2.43,8.93,8.12,8.93,1.74,0,3.39-.35,4.92-.98,4.18-1.72,8.67-1.76,12.26.18h0c-4.14,5.19-10.7,8.5-18.05,8.5-11.89,0-18.77-7.93-17.2-19.89s10.39-20.39,22.07-20.39,18.36,7.78,16.81,19.53c-.18,1.37-.53,2.95-.83,4.11Zm-27.23-6.63h18.08c.06-5.91-2.59-9.29-7.85-9.29s-8.66,3.39-10.23,9.29Z"/>
    </g>
  </g>
</svg>