<?xml version="1.0" encoding="UTF-8"?>
<svg id="Layer_1" data-name="Layer 1" xmlns="http://www.w3.org/2000/svg" viewBox="0 0 500 167.01">
  <defs>
    <style>
      .cls-1 {
        fill: #fff;
      }
    </style>
  </defs>
  <rect class="cls-1" width="500" height="167.01"/>
  <g>
    <g>
      <path class="cls-1" d="m146.62,88.02c2.16-16.43,14.84-27.38,31.63-27.38s26.51,10.95,24.35,27.38c-2.16,16.43-14.84,27.38-31.56,27.38s-26.59-10.95-24.42-27.38Zm45.46,0c1.5-11.38-4.49-18.95-14.94-18.95s-18.5,7.57-20,18.95,4.56,18.95,15.01,18.95,18.43-7.57,19.93-18.95Z"/>
      <path class="cls-1" d="m250.31,95.08c-1.6,12.18-10.82,20.32-21.26,20.32-5.91,0-9.84-2.38-12.06-6.34l-2.78,21.11c-.03.2-.21.36-.41.36h0c-5.21,0-8.88-4.23-8.2-9.44l5.96-45.25h3.6c3.26,0,5.6,2.58,5.29,5.84h0c3.28-4.11,7.92-6.56,13.9-6.56,10.45,0,17.55,7.92,15.96,19.96Zm-10.17.07c.92-6.99-2.78-11.67-9.13-11.67s-11.28,4.68-12.21,11.74c-.93,7.06,2.7,11.75,9.12,11.75s11.28-4.68,12.22-11.82Z"/>
      <path class="cls-1" d="m254.06,75.85h.03c6.45,0,11.71,3.98,13.22,10l4.44,17.67,9.02-17.63c3.09-6.04,9.41-10.03,15.87-10.03h0l-21.47,38.83h-9.8l-11.31-38.83Z"/>
      <path class="cls-1" d="m330.2,90.26l-3.22,24.43h-3.89c-3.1,0-5.33-2.45-5.04-5.55h0c-3.12,4.04-7.89,6.27-12.64,6.27-8.07,0-12.84-4.83-11.89-12.03.99-7.49,8.26-12.39,18.2-12.39,2.67,0,5.58.29,8.46.86l.09-.72c.68-5.19-2.37-8.28-8.27-8.28-1.52,0-2.95.19-4.29.55-3.52.95-6.97-.37-8.69-3.21h0c4.63-3.39,9.74-5.04,16.52-5.04,9.94,0,15.86,5.98,14.65,15.13Zm-10.88,8.21c-2.45-.51-5.01-.79-7.24-.79-4.61,0-7.85,2.16-8.29,5.48s1.4,5.26,5.36,5.26c4.54,0,9.27-3.6,10.17-9.94Z"/>
      <path class="cls-1" d="m376.74,90.26l-3.22,24.43h-9.8l3.01-22.84c.66-5.04-2.5-8.36-7.98-8.36s-9.52,3.31-10.18,8.36l-3.01,22.84h-9.8l5.11-38.83h4.54c2.73,0,4.68,2.17,4.4,4.9h0c3.44-3.67,8.23-5.62,13.42-5.62,9.29,0,14.69,6.05,13.5,15.13Z"/>
      <path class="cls-1" d="m382.57,95.23c1.58-12.03,11-20.1,23.54-20.1,5.19,0,9.51,1.66,12.74,4.47l-.74.76c-2.81,2.9-6.8,4.1-10.41,3.37-.78-.16-1.62-.24-2.55-.24-6.48,0-11.49,4.68-12.42,11.74s2.78,11.75,9.4,11.75c1.29,0,2.51-.14,3.66-.42,3.97-.98,7.88.14,10.06,3.15l.22.3c-4.16,3.67-9.65,5.4-15.48,5.4-12.39,0-19.62-8.07-18.02-20.18Z"/>
      <path class="cls-1" d="m458.18,98.76h-28.1c0,5.48,2.43,8.93,8.12,8.93,1.74,0,3.39-.35,4.92-.98,4.18-1.72,8.67-1.76,12.26.18h0c-4.14,5.19-10.7,8.5-18.05,8.5-11.89,0-18.77-7.93-17.2-19.89s10.39-20.39,22.07-20.39,18.36,7.78,16.81,19.53c-.18,1.37-.53,2.95-.83,4.11Zm-27.23-6.63h18.08c.06-5.91-2.59-9.29-7.85-9.29s-8.66,3.39-10.23,9.29Z"/>
    </g>
    <g>
      <path class="cls-1" d="m78.28,41.8c-27.96,5.58-35.33,41.85-11.01,57.23-11.94-12.14-6.04-33.52,10.69-37.66,0,0,22.16-6.07,22.16-6.07,2.89-.74,5.51-2.08,7.83-3.98,5.71-4.61,8.51-12.27,7.11-19.47l-34.11,9.34c-.88.24-1.77.43-2.67.6Z"/>
      <path class="cls-1" d="m99.78,67.44c-3.75-2.29-8.02-3.77-12.36-4.28-.43-.06-.84-.1-1.26-.14-.28-.02-.61-.04-.92-.05-.28-.02-.53-.03-.77-.03-20.84-.68-29.18,26.34-11.79,37.6-6.39-22.63,21.03-38.84,37.76-22.38-2.56-4.31-6.18-8-10.66-10.72Z"/>
      <path class="cls-1" d="m77.15,105.02c10.99,17.09,37.46,9.47,37.63-10.93h0c0-7.04-3.64-13.51-9.46-17.2,5.21,17.01-11.19,33.36-28.18,28.13Z"/>
      <path class="cls-1" d="m109.42,53.13c-2.57,2.11-5.5,3.6-8.7,4.42l-12.63,3.46c2.55.33,5.18.98,7.61,1.95,12.78,4.89,21.42,17.44,21.31,31.13h0s0,0,0,0c-.28,23.59-31.48,31.24-42.64,10.55-24.7-6.92-32.57-39.01-13.44-56.54-22.25,13.98-25.78,46.48-6.93,64.87,16.34,16.34,42.94,16.34,59.28,0,17.11-16.46,16.06-46.17-2.22-61.33-.51.51-1.05,1.02-1.63,1.49Z"/>
    </g>
  </g>
</svg>