<?xml version="1.0" encoding="utf-8"?>
<!-- Generator: Adobe Illustrator 24.2.3, SVG Export Plug-In . SVG Version: 6.00 Build 0)  -->
<svg version="1.1" xmlns="http://www.w3.org/2000/svg" xmlns:xlink="http://www.w3.org/1999/xlink" x="0px" y="0px"
	 viewBox="0 0 226.8 226.8" style="enable-background:new 0 0 226.8 226.8;" xml:space="preserve">
<style type="text/css">
	.st0{fill:none;}
	.st1{fill:url(#SVGID_1_);}
	.st2{fill:url(#SVGID_2_);}
	.st3{fill:url(#SVGID_3_);}
	.st4{fill:url(#SVGID_4_);}
	.st5{fill:url(#SVGID_5_);}
</style>
<g id="fundo">
</g>
<g id="text">
	<g>
		<rect class="st0" width="226.8" height="226.8"/>
		<g>
			<g>
				<linearGradient id="SVGID_1_" gradientUnits="userSpaceOnUse" x1="128.2256" y1="21.4917" x2="181.8395" y2="89.0055">
					<stop  offset="0" style="stop-color:#FDB62B"/>
					<stop  offset="1" style="stop-color:#F06134"/>
				</linearGradient>
				<path class="st1" d="M179.6,25.7L146.9,78l-9.8,15.7l-31-54.3L179,24.8C179.4,24.7,179.8,25.3,179.6,25.7z"/>
				<linearGradient id="SVGID_2_" gradientUnits="userSpaceOnUse" x1="70.8689" y1="204.3779" x2="128.2168" y2="134.3531">
					<stop  offset="0" style="stop-color:#FDB62B"/>
					<stop  offset="1" style="stop-color:#F06134"/>
				</linearGradient>
				<path class="st2" d="M165.4,143.3L48.3,201.9c-0.5,0.2-1-0.3-0.8-0.8l20.3-40.7l8.6-17.2H165.4z"/>
				<linearGradient id="SVGID_3_" gradientUnits="userSpaceOnUse" x1="132.0996" y1="70.8398" x2="105.2755" y2="13.168">
					<stop  offset="0" style="stop-color:#F06134"/>
					<stop  offset="1" style="stop-color:#FDB62B"/>
				</linearGradient>
				<polygon class="st3" points="146.9,78 137.1,93.7 106.1,39.4 				"/>
				<linearGradient id="SVGID_4_" gradientUnits="userSpaceOnUse" x1="98.2344" y1="150.0813" x2="10.6243" y2="156.0412">
					<stop  offset="0" style="stop-color:#F06134"/>
					<stop  offset="1" style="stop-color:#FDB62B"/>
				</linearGradient>
				<polygon class="st4" points="165.4,143.3 67.8,160.4 76.4,143.3 				"/>
				<linearGradient id="SVGID_5_" gradientUnits="userSpaceOnUse" x1="62.6116" y1="46.3197" x2="105.1555" y2="140.5569">
					<stop  offset="0" style="stop-color:#FFFFFF"/>
					<stop  offset="1" style="stop-color:#FDB62B"/>
				</linearGradient>
				<path class="st5" d="M47.7,143.3h117.7L106.1,39.4l-58.9,103C47,142.8,47.3,143.3,47.7,143.3z"/>
			</g>
		</g>
	</g>
</g>
</svg>
