<?xml version="1.0" encoding="utf-8"?>
<!-- Generator: Adobe Illustrator 24.2.3, SVG Export Plug-In . SVG Version: 6.00 Build 0)  -->
<svg version="1.1" xmlns="http://www.w3.org/2000/svg" xmlns:xlink="http://www.w3.org/1999/xlink" x="0px" y="0px"
	 viewBox="0 0 226.8 226.8" style="enable-background:new 0 0 226.8 226.8;" xml:space="preserve">
<style type="text/css">
	.st0{fill:#FFFFFF;}
	.st1{fill:none;}
</style>
<g id="fundo">
</g>
<g id="text">
	<g>
		<g>
			<path class="st0" d="M47.4,201.2l23.4-46.8c0.1-0.1,0.2-0.2,0.4-0.3l80.2-10c0.6-0.1,0.5-0.9-0.1-0.9H47.6
				c-0.4,0-0.6-0.4-0.4-0.7l58.7-102.8c0.1-0.1,0.2-0.2,0.3-0.2l72.8-14.6c0.4-0.1,0.7,0.4,0.5,0.7l-36.1,57.7
				c-0.2,0.3-0.6,0.3-0.8,0.1L112,48c-0.4-0.4-1.1,0-0.8,0.5l53.8,94.2c0.1,0.2,0,0.5-0.2,0.7L48.1,201.8
				C47.7,202,47.2,201.6,47.4,201.2z"/>
		</g>
		<rect class="st1" width="226.8" height="226.8"/>
	</g>
</g>
</svg>
