<?xml version="1.0" encoding="utf-8"?>
<!-- Generator: Adobe Illustrator 24.2.3, SVG Export Plug-In . SVG Version: 6.00 Build 0)  -->
<svg version="1.1" xmlns="http://www.w3.org/2000/svg" xmlns:xlink="http://www.w3.org/1999/xlink" x="0px" y="0px"
	 viewBox="0 0 561.3 226.8" style="enable-background:new 0 0 561.3 226.8;" xml:space="preserve">
<style type="text/css">
	.st0{fill:#FFFFFF;}
	.st1{fill:url(#SVGID_1_);}
	.st2{fill:url(#SVGID_2_);}
	.st3{fill:url(#SVGID_3_);}
	.st4{fill:url(#SVGID_4_);}
	.st5{fill:url(#SVGID_5_);}
	.st6{fill:none;}
</style>
<g id="fundo">
</g>
<g id="text">
	<g>
		<g>
			<g>
				<g>
					<g>
						<g>
							<path class="st0" d="M168.5,95.2c-7.2-0.5-10.5-2.5-10.5-6.2c0-3.5,3.6-5.6,10.2-5.6c4.9,0,9.1,1,12.9,4.1
								c0.1,0.1,0.3,0.1,0.4,0l8-8c0.1-0.1,0.1-0.4,0-0.5c-6.4-5.5-12.9-7.1-21.5-7.1c-10.2,0-23.7,4.5-23.7,17.5
								c0,12.7,12.6,16.6,23.2,17.4c8,0.4,11.2,2,11.2,5.9c0,4.1-4.9,6.8-10.1,6.7c-5.4-0.1-13-2.6-17.5-6.1c-0.1-0.1-0.3-0.1-0.4,0
								l-7.9,8c-0.1,0.1-0.1,0.4,0,0.5c8.1,8.3,16.9,9.7,25.7,9.7c16.1,0,24.1-8.5,24.1-18.5C192.6,98.3,179.1,95.9,168.5,95.2z"/>
							<path class="st0" d="M213.4,73.1h-12.9c-0.2,0-0.3,0.1-0.3,0.3v55.9c0,0.2,0.1,0.3,0.3,0.3h12.9c0.2,0,0.3-0.1,0.3-0.3v-37
								c0-0.2-0.1-0.3-0.3-0.3h-10.5l10.7-10.7c0.1-0.1,0.1-0.1,0.1-0.2v-7.7C213.7,73.3,213.6,73.1,213.4,73.1z"/>
							<path class="st0" d="M302,73.1h-13c-0.2,0-0.3,0.1-0.3,0.3v55.9c0,0.2,0.1,0.3,0.3,0.3h13c0.2,0,0.3-0.1,0.3-0.3v-37
								c0-0.2-0.1-0.3-0.3-0.3h-10.5l10.7-10.7c0.1-0.1,0.1-0.1,0.1-0.2v-7.7C302.3,73.3,302.2,73.1,302,73.1z"/>
							<path class="st0" d="M327,57.1v72.3c0,0.2-0.1,0.3-0.3,0.3h-12.9c-0.2,0-0.3-0.1-0.3-0.3V57.1c0-0.2,0.1-0.3,0.3-0.3h12.9
								C326.9,56.8,327,56.9,327,57.1z"/>
						</g>
						<path class="st0" d="M251.4,73.1c-16.5,0-29.9,13.7-29.2,30.4c0.6,15.1,13,27.5,28.1,28.1c16.7,0.6,30.4-12.7,30.4-29.2
							c0-8.1-3.3-15.4-8.6-20.7l8-8c0.2-0.2,0.1-0.6-0.2-0.6H251.4z M251.4,119c-9.2,0-16.6-7.5-16.6-16.6s7.5-16.6,16.6-16.6
							s16.6,7.5,16.6,16.6S260.5,119,251.4,119L251.4,119z"/>
						<path class="st0" d="M279.1,131.6h-13.9c1.8,2.6,2.8,5.8,2.8,9.2c0,9.2-7.5,16.6-16.6,16.6c-8.6,0-15.7-6.6-16.5-15h-12.7
							c0.8,14.8,13.2,27,28.1,27.6c16.6,0.6,30.4-12.7,30.4-29.2C280.6,137.6,280.1,134.5,279.1,131.6z"/>
						<g>
							<g>
								<g>
									<path class="st0" d="M352.7,107.4c-1.2,0-2.2-0.2-3.1-0.6c-0.8-0.4-1.5-0.9-1.9-1.5c-0.4-0.6-0.7-1.2-0.7-1.9
										c0-0.1,0-0.2,0.1-0.3c0.1-0.1,0.2-0.1,0.3-0.1h1.1c0.2,0,0.3,0,0.4,0.1c0.1,0.1,0.1,0.2,0.2,0.3c0.1,0.3,0.2,0.7,0.5,1
										c0.3,0.3,0.7,0.6,1.2,0.8c0.5,0.2,1.1,0.3,1.9,0.3c1.2,0,2.1-0.2,2.7-0.6c0.6-0.4,0.9-1,0.9-1.7c0-0.5-0.2-0.9-0.5-1.2
										c-0.3-0.3-0.8-0.6-1.4-0.8c-0.6-0.2-1.4-0.5-2.4-0.8c-1-0.3-1.9-0.6-2.6-1c-0.7-0.4-1.2-0.8-1.5-1.3
										c-0.3-0.5-0.5-1.2-0.5-2c0-0.8,0.2-1.4,0.6-2c0.4-0.6,1-1.1,1.8-1.4c0.8-0.4,1.7-0.5,2.8-0.5c0.9,0,1.6,0.1,2.3,0.3
										c0.7,0.2,1.2,0.5,1.6,0.9c0.4,0.4,0.8,0.8,1,1.2c0.2,0.4,0.3,0.9,0.4,1.3c0,0.1,0,0.2-0.1,0.3c-0.1,0.1-0.2,0.1-0.3,0.1
										h-1.1c-0.1,0-0.2,0-0.3-0.1c-0.1-0.1-0.2-0.2-0.2-0.3c-0.1-0.6-0.4-1.1-1-1.5c-0.6-0.4-1.3-0.6-2.2-0.6
										c-0.9,0-1.7,0.2-2.2,0.5c-0.6,0.4-0.9,0.9-0.9,1.6c0,0.5,0.1,0.9,0.4,1.2c0.3,0.3,0.7,0.6,1.3,0.8s1.3,0.5,2.3,0.8
										c1.1,0.3,2,0.6,2.8,1c0.7,0.3,1.2,0.8,1.6,1.3s0.5,1.2,0.5,2c0,0.9-0.2,1.6-0.7,2.3s-1.1,1.1-2,1.4
										C354.8,107.2,353.8,107.4,352.7,107.4z"/>
									<path class="st0" d="M368.5,107.4c-1.3,0-2.4-0.2-3.2-0.7c-0.9-0.5-1.5-1.1-1.9-2c-0.4-0.9-0.7-1.9-0.7-3
										c0-0.6,0-1.2,0-1.9s0-1.3,0-1.9c0-1.1,0.3-2.1,0.7-3c0.4-0.9,1.1-1.5,1.9-2c0.9-0.5,1.9-0.7,3.2-0.7c1,0,1.8,0.1,2.6,0.4
										c0.7,0.3,1.3,0.6,1.8,1.1c0.5,0.5,0.9,1,1.1,1.5c0.3,0.6,0.4,1.1,0.4,1.7c0,0.1,0,0.2-0.1,0.3c-0.1,0.1-0.2,0.1-0.3,0.1
										h-1.2c-0.1,0-0.2,0-0.3-0.1c-0.1-0.1-0.2-0.2-0.2-0.4c-0.2-1.1-0.7-1.8-1.3-2.3c-0.7-0.4-1.5-0.6-2.5-0.6
										c-1.1,0-2,0.3-2.7,1c-0.7,0.6-1,1.7-1.1,3.1c0,1.2,0,2.3,0,3.5c0.1,1.4,0.4,2.4,1.1,3.1c0.7,0.6,1.6,1,2.7,1
										c1,0,1.8-0.2,2.5-0.6c0.7-0.4,1.1-1.2,1.3-2.3c0-0.2,0.1-0.3,0.2-0.4c0.1-0.1,0.2-0.1,0.3-0.1h1.2c0.1,0,0.2,0,0.3,0.1
										c0.1,0.1,0.1,0.2,0.1,0.3c0,0.6-0.2,1.2-0.4,1.7s-0.6,1.1-1.1,1.5c-0.5,0.5-1.1,0.8-1.8,1.1
										C370.3,107.2,369.4,107.4,368.5,107.4z"/>
									<path class="st0" d="M379.8,107.2c-0.2,0-0.3,0-0.4-0.1c-0.1-0.1-0.1-0.2-0.1-0.3V92.9c0-0.1,0-0.3,0.1-0.3
										c0.1-0.1,0.2-0.1,0.4-0.1h1.1c0.1,0,0.3,0,0.3,0.1c0.1,0.1,0.1,0.2,0.1,0.3v13.8c0,0.1,0,0.3-0.1,0.3
										c-0.1,0.1-0.2,0.1-0.3,0.1H379.8z"/>
									<path class="st0" d="M387.6,107.2c-0.2,0-0.3,0-0.4-0.1c-0.1-0.1-0.1-0.2-0.1-0.3V92.9c0-0.2,0-0.3,0.1-0.4
										c0.1-0.1,0.2-0.1,0.4-0.1h8.7c0.2,0,0.3,0,0.4,0.1c0.1,0.1,0.1,0.2,0.1,0.4v0.8c0,0.2,0,0.3-0.1,0.4
										c-0.1,0.1-0.2,0.1-0.4,0.1h-7.2v4.6h6.7c0.2,0,0.3,0,0.4,0.1c0.1,0.1,0.1,0.2,0.1,0.4v0.8c0,0.1,0,0.3-0.1,0.3
										c-0.1,0.1-0.2,0.1-0.4,0.1h-6.7v4.8h7.3c0.2,0,0.3,0,0.4,0.1c0.1,0.1,0.1,0.2,0.1,0.4v0.8c0,0.1,0,0.3-0.1,0.3
										c-0.1,0.1-0.2,0.1-0.4,0.1H387.6z"/>
									<path class="st0" d="M402.5,107.2c-0.2,0-0.3,0-0.4-0.1c-0.1-0.1-0.1-0.2-0.1-0.3V92.9c0-0.2,0-0.3,0.1-0.4
										c0.1-0.1,0.2-0.1,0.4-0.1h1c0.2,0,0.3,0,0.4,0.1c0.1,0.1,0.1,0.1,0.1,0.2l7,10.8V92.9c0-0.2,0-0.3,0.1-0.4
										c0.1-0.1,0.2-0.1,0.4-0.1h1c0.2,0,0.3,0,0.4,0.1c0.1,0.1,0.1,0.2,0.1,0.4v13.8c0,0.1,0,0.3-0.1,0.4
										c-0.1,0.1-0.2,0.1-0.3,0.1h-1c-0.2,0-0.3,0-0.3-0.1c-0.1-0.1-0.1-0.1-0.2-0.2l-7-10.7v10.5c0,0.1,0,0.3-0.1,0.3
										c-0.1,0.1-0.2,0.1-0.4,0.1H402.5z"/>
									<path class="st0" d="M422.5,107.2c-0.1,0-0.3,0-0.3-0.1c-0.1-0.1-0.1-0.2-0.1-0.3V94.3h-4c-0.1,0-0.3,0-0.3-0.1
										c-0.1-0.1-0.1-0.2-0.1-0.3v-0.9c0-0.2,0-0.3,0.1-0.4c0.1-0.1,0.2-0.1,0.3-0.1h10.2c0.2,0,0.3,0,0.4,0.1
										c0.1,0.1,0.1,0.2,0.1,0.4v0.9c0,0.1,0,0.3-0.1,0.3c-0.1,0.1-0.2,0.1-0.4,0.1h-4v12.4c0,0.1,0,0.3-0.1,0.3
										c-0.1,0.1-0.2,0.1-0.4,0.1H422.5z"/>
									<path class="st0" d="M433.6,107.2c-0.2,0-0.3,0-0.4-0.1c-0.1-0.1-0.1-0.2-0.1-0.3V92.9c0-0.1,0-0.3,0.1-0.3
										c0.1-0.1,0.2-0.1,0.4-0.1h1.1c0.1,0,0.3,0,0.3,0.1c0.1,0.1,0.1,0.2,0.1,0.3v13.8c0,0.1,0,0.3-0.1,0.3
										c-0.1,0.1-0.2,0.1-0.3,0.1H433.6z"/>
									<path class="st0" d="M441.5,107.2c-0.2,0-0.3,0-0.4-0.1c-0.1-0.1-0.1-0.2-0.1-0.3V92.9c0-0.2,0-0.3,0.1-0.4
										c0.1-0.1,0.2-0.1,0.4-0.1h8.6c0.2,0,0.3,0,0.4,0.1c0.1,0.1,0.1,0.2,0.1,0.4v0.8c0,0.2,0,0.3-0.1,0.4
										c-0.1,0.1-0.2,0.1-0.4,0.1h-7v4.9h6.6c0.2,0,0.3,0,0.4,0.1c0.1,0.1,0.1,0.2,0.1,0.4v0.8c0,0.1,0,0.3-0.1,0.3
										c-0.1,0.1-0.2,0.1-0.4,0.1H443v5.7c0,0.1,0,0.3-0.1,0.3c-0.1,0.1-0.2,0.1-0.4,0.1H441.5z"/>
									<path class="st0" d="M455.9,107.2c-0.2,0-0.3,0-0.4-0.1c-0.1-0.1-0.1-0.2-0.1-0.3V92.9c0-0.1,0-0.3,0.1-0.3
										c0.1-0.1,0.2-0.1,0.4-0.1h1.1c0.1,0,0.3,0,0.3,0.1c0.1,0.1,0.1,0.2,0.1,0.3v13.8c0,0.1,0,0.3-0.1,0.3
										c-0.1,0.1-0.2,0.1-0.3,0.1H455.9z"/>
									<path class="st0" d="M468.6,107.4c-1.3,0-2.4-0.2-3.2-0.7c-0.9-0.5-1.5-1.1-1.9-2c-0.4-0.9-0.7-1.9-0.7-3
										c0-0.6,0-1.2,0-1.9s0-1.3,0-1.9c0-1.1,0.3-2.1,0.7-3c0.4-0.9,1.1-1.5,1.9-2c0.9-0.5,1.9-0.7,3.2-0.7c1,0,1.8,0.1,2.6,0.4
										c0.7,0.3,1.3,0.6,1.8,1.1c0.5,0.5,0.9,1,1.1,1.5c0.3,0.6,0.4,1.1,0.4,1.7c0,0.1,0,0.2-0.1,0.3c-0.1,0.1-0.2,0.1-0.3,0.1
										h-1.2c-0.1,0-0.2,0-0.3-0.1c-0.1-0.1-0.2-0.2-0.2-0.4c-0.2-1.1-0.7-1.8-1.3-2.3c-0.7-0.4-1.5-0.6-2.5-0.6
										c-1.1,0-2,0.3-2.7,1c-0.7,0.6-1,1.7-1.1,3.1c0,1.2,0,2.3,0,3.5c0.1,1.4,0.4,2.4,1.1,3.1c0.7,0.6,1.6,1,2.7,1
										c1,0,1.8-0.2,2.5-0.6c0.7-0.4,1.1-1.2,1.3-2.3c0-0.2,0.1-0.3,0.2-0.4c0.1-0.1,0.2-0.1,0.3-0.1h1.2c0.1,0,0.2,0,0.3,0.1
										c0.1,0.1,0.1,0.2,0.1,0.3c0,0.6-0.2,1.2-0.4,1.7s-0.6,1.1-1.1,1.5c-0.5,0.5-1.1,0.8-1.8,1.1
										C470.4,107.2,469.6,107.4,468.6,107.4z"/>
								</g>
							</g>
							<g>
								<path class="st0" d="M348.4,129.6c-0.2,0-0.3,0-0.4-0.1c-0.1-0.1-0.1-0.2-0.1-0.3v-13.8c0-0.2,0-0.3,0.1-0.4
									c0.1-0.1,0.2-0.1,0.4-0.1h8.7c0.2,0,0.3,0,0.4,0.1c0.1,0.1,0.1,0.2,0.1,0.4v0.8c0,0.2,0,0.3-0.1,0.4
									c-0.1,0.1-0.2,0.1-0.4,0.1h-7.2v4.6h6.7c0.2,0,0.3,0,0.4,0.1c0.1,0.1,0.1,0.2,0.1,0.4v0.8c0,0.1,0,0.3-0.1,0.3
									c-0.1,0.1-0.2,0.1-0.4,0.1h-6.7v4.8h7.3c0.2,0,0.3,0,0.4,0.1c0.1,0.1,0.1,0.2,0.1,0.4v0.8c0,0.1,0,0.3-0.1,0.3
									c-0.1,0.1-0.2,0.1-0.4,0.1H348.4z"/>
								<path class="st0" d="M363.3,129.6c-0.2,0-0.3,0-0.4-0.1c-0.1-0.1-0.1-0.2-0.1-0.3v-13.8c0-0.2,0-0.3,0.1-0.4
									c0.1-0.1,0.2-0.1,0.4-0.1h1c0.2,0,0.3,0,0.4,0.1c0.1,0.1,0.1,0.1,0.1,0.2l7,10.8v-10.5c0-0.2,0-0.3,0.1-0.4
									c0.1-0.1,0.2-0.1,0.4-0.1h1c0.2,0,0.3,0,0.4,0.1c0.1,0.1,0.1,0.2,0.1,0.4v13.8c0,0.1,0,0.3-0.1,0.4
									c-0.1,0.1-0.2,0.1-0.3,0.1h-1c-0.2,0-0.3,0-0.3-0.1c-0.1-0.1-0.1-0.1-0.2-0.2l-7-10.7v10.5c0,0.1,0,0.3-0.1,0.3
									c-0.1,0.1-0.2,0.1-0.4,0.1H363.3z"/>
								<path class="st0" d="M383.3,129.6c-0.1,0-0.3,0-0.3-0.1c-0.1-0.1-0.1-0.2-0.1-0.3v-12.4h-4c-0.1,0-0.3,0-0.3-0.1
									c-0.1-0.1-0.1-0.2-0.1-0.3v-0.9c0-0.2,0-0.3,0.1-0.4c0.1-0.1,0.2-0.1,0.3-0.1h10.2c0.2,0,0.3,0,0.4,0.1
									c0.1,0.1,0.1,0.2,0.1,0.4v0.9c0,0.1,0,0.3-0.1,0.3c-0.1,0.1-0.2,0.1-0.4,0.1h-4v12.4c0,0.1,0,0.3-0.1,0.3
									c-0.1,0.1-0.2,0.1-0.4,0.1H383.3z"/>
								<path class="st0" d="M394.4,129.6c-0.2,0-0.3,0-0.4-0.1c-0.1-0.1-0.1-0.2-0.1-0.3v-13.8c0-0.2,0-0.3,0.1-0.4
									c0.1-0.1,0.2-0.1,0.4-0.1h8.7c0.2,0,0.3,0,0.4,0.1c0.1,0.1,0.1,0.2,0.1,0.4v0.8c0,0.2,0,0.3-0.1,0.4
									c-0.1,0.1-0.2,0.1-0.4,0.1h-7.2v4.6h6.7c0.2,0,0.3,0,0.4,0.1c0.1,0.1,0.1,0.2,0.1,0.4v0.8c0,0.1,0,0.3-0.1,0.3
									c-0.1,0.1-0.2,0.1-0.4,0.1h-6.7v4.8h7.3c0.2,0,0.3,0,0.4,0.1c0.1,0.1,0.1,0.2,0.1,0.4v0.8c0,0.1,0,0.3-0.1,0.3
									c-0.1,0.1-0.2,0.1-0.4,0.1H394.4z"/>
								<path class="st0" d="M409.2,129.6c-0.2,0-0.3,0-0.4-0.1c-0.1-0.1-0.1-0.2-0.1-0.3v-13.8c0-0.2,0-0.3,0.1-0.4
									c0.1-0.1,0.2-0.1,0.4-0.1h5.1c1.6,0,2.8,0.4,3.8,1.1c0.9,0.7,1.4,1.8,1.4,3.3c0,1.1-0.3,2-0.8,2.6c-0.5,0.7-1.3,1.2-2.2,1.4
									l3.2,5.6c0,0.1,0.1,0.2,0.1,0.2c0,0.1,0,0.2-0.1,0.3c-0.1,0.1-0.2,0.1-0.3,0.1h-1c-0.2,0-0.4-0.1-0.5-0.2
									c-0.1-0.1-0.2-0.3-0.3-0.4l-3.1-5.4h-3.7v5.4c0,0.1,0,0.3-0.1,0.3c-0.1,0.1-0.2,0.1-0.4,0.1H409.2z M410.8,121.9h3.5
									c1.1,0,1.8-0.2,2.4-0.7s0.8-1.1,0.8-2c0-0.9-0.3-1.5-0.8-2c-0.5-0.4-1.3-0.7-2.4-0.7h-3.5V121.9z"/>
								<path class="st0" d="M425.2,129.6c-0.2,0-0.3,0-0.4-0.1c-0.1-0.1-0.1-0.2-0.1-0.3v-13.8c0-0.2,0-0.3,0.1-0.4
									c0.1-0.1,0.2-0.1,0.4-0.1h5.4c1,0,1.9,0.2,2.7,0.5c0.8,0.3,1.4,0.8,1.8,1.5c0.4,0.7,0.6,1.5,0.6,2.5c0,1-0.2,1.8-0.6,2.5
									c-0.4,0.7-1,1.2-1.8,1.5c-0.8,0.3-1.7,0.5-2.7,0.5h-3.7v5.3c0,0.1,0,0.3-0.1,0.3c-0.1,0.1-0.2,0.1-0.4,0.1H425.2z
									 M426.8,122.1h3.6c1,0,1.8-0.2,2.3-0.7c0.5-0.5,0.8-1.1,0.8-2c0-0.9-0.3-1.5-0.8-2c-0.5-0.5-1.3-0.7-2.4-0.7h-3.6V122.1z"/>
								<path class="st0" d="M440.8,129.6c-0.2,0-0.3,0-0.4-0.1c-0.1-0.1-0.1-0.2-0.1-0.3v-13.8c0-0.2,0-0.3,0.1-0.4
									c0.1-0.1,0.2-0.1,0.4-0.1h5.1c1.6,0,2.8,0.4,3.8,1.1c0.9,0.7,1.4,1.8,1.4,3.3c0,1.1-0.3,2-0.8,2.6c-0.5,0.7-1.3,1.2-2.2,1.4
									l3.2,5.6c0,0.1,0.1,0.2,0.1,0.2c0,0.1,0,0.2-0.1,0.3c-0.1,0.1-0.2,0.1-0.3,0.1h-1c-0.2,0-0.4-0.1-0.5-0.2
									c-0.1-0.1-0.2-0.3-0.3-0.4l-3.1-5.4h-3.7v5.4c0,0.1,0,0.3-0.1,0.3c-0.1,0.1-0.2,0.1-0.4,0.1H440.8z M442.4,121.9h3.5
									c1.1,0,1.8-0.2,2.4-0.7s0.8-1.1,0.8-2c0-0.9-0.3-1.5-0.8-2c-0.5-0.4-1.3-0.7-2.4-0.7h-3.5V121.9z"/>
								<path class="st0" d="M456.7,129.6c-0.2,0-0.3,0-0.4-0.1c-0.1-0.1-0.1-0.2-0.1-0.3v-13.8c0-0.1,0-0.3,0.1-0.3
									c0.1-0.1,0.2-0.1,0.4-0.1h1.1c0.1,0,0.3,0,0.3,0.1c0.1,0.1,0.1,0.2,0.1,0.3v13.8c0,0.1,0,0.3-0.1,0.3
									c-0.1,0.1-0.2,0.1-0.3,0.1H456.7z"/>
								<path class="st0" d="M468.9,129.8c-1.2,0-2.2-0.2-3.1-0.6c-0.8-0.4-1.5-0.9-1.9-1.5c-0.4-0.6-0.7-1.2-0.7-1.9
									c0-0.1,0-0.2,0.1-0.3c0.1-0.1,0.2-0.1,0.3-0.1h1.1c0.2,0,0.3,0,0.4,0.1c0.1,0.1,0.1,0.2,0.2,0.3c0.1,0.3,0.2,0.7,0.5,1
									c0.3,0.3,0.7,0.6,1.2,0.8c0.5,0.2,1.1,0.3,1.9,0.3c1.2,0,2.1-0.2,2.7-0.6c0.6-0.4,0.9-1,0.9-1.7c0-0.5-0.2-0.9-0.5-1.2
									c-0.3-0.3-0.8-0.6-1.4-0.8c-0.6-0.2-1.4-0.5-2.4-0.8c-1-0.3-1.9-0.6-2.6-1c-0.7-0.4-1.2-0.8-1.5-1.3c-0.3-0.5-0.5-1.2-0.5-2
									c0-0.8,0.2-1.4,0.6-2c0.4-0.6,1-1.1,1.8-1.4c0.8-0.4,1.7-0.5,2.8-0.5c0.9,0,1.6,0.1,2.3,0.3c0.7,0.2,1.2,0.5,1.6,0.9
									c0.4,0.4,0.8,0.8,1,1.2c0.2,0.4,0.3,0.9,0.4,1.3c0,0.1,0,0.2-0.1,0.3c-0.1,0.1-0.2,0.1-0.3,0.1h-1.1c-0.1,0-0.2,0-0.3-0.1
									c-0.1-0.1-0.2-0.2-0.2-0.3c-0.1-0.6-0.4-1.1-1-1.5c-0.6-0.4-1.3-0.6-2.2-0.6c-0.9,0-1.7,0.2-2.2,0.5
									c-0.6,0.4-0.9,0.9-0.9,1.6c0,0.5,0.1,0.9,0.4,1.2c0.3,0.3,0.7,0.6,1.3,0.8c0.6,0.2,1.3,0.5,2.3,0.8c1.1,0.3,2,0.6,2.8,1
									c0.7,0.3,1.2,0.8,1.6,1.3s0.5,1.2,0.5,2c0,0.9-0.2,1.6-0.7,2.3c-0.5,0.6-1.1,1.1-2,1.4C471,129.7,470,129.8,468.9,129.8z"/>
								<path class="st0" d="M479.8,129.6c-0.2,0-0.3,0-0.4-0.1c-0.1-0.1-0.1-0.2-0.1-0.3v-13.8c0-0.2,0-0.3,0.1-0.4
									c0.1-0.1,0.2-0.1,0.4-0.1h8.7c0.2,0,0.3,0,0.4,0.1c0.1,0.1,0.1,0.2,0.1,0.4v0.8c0,0.2,0,0.3-0.1,0.4
									c-0.1,0.1-0.2,0.1-0.4,0.1h-7.2v4.6h6.7c0.2,0,0.3,0,0.4,0.1c0.1,0.1,0.1,0.2,0.1,0.4v0.8c0,0.1,0,0.3-0.1,0.3
									c-0.1,0.1-0.2,0.1-0.4,0.1h-6.7v4.8h7.3c0.2,0,0.3,0,0.4,0.1c0.1,0.1,0.1,0.2,0.1,0.4v0.8c0,0.1,0,0.3-0.1,0.3
									c-0.1,0.1-0.2,0.1-0.4,0.1H479.8z"/>
								<path class="st0" d="M499,129.8c-1.2,0-2.2-0.2-3.1-0.6c-0.8-0.4-1.5-0.9-1.9-1.5c-0.4-0.6-0.7-1.2-0.7-1.9
									c0-0.1,0-0.2,0.1-0.3c0.1-0.1,0.2-0.1,0.3-0.1h1.1c0.2,0,0.3,0,0.4,0.1c0.1,0.1,0.1,0.2,0.2,0.3c0.1,0.3,0.2,0.7,0.5,1
									c0.3,0.3,0.7,0.6,1.2,0.8c0.5,0.2,1.1,0.3,1.9,0.3c1.2,0,2.1-0.2,2.7-0.6c0.6-0.4,0.9-1,0.9-1.7c0-0.5-0.2-0.9-0.5-1.2
									c-0.3-0.3-0.8-0.6-1.4-0.8c-0.6-0.2-1.4-0.5-2.4-0.8c-1-0.3-1.9-0.6-2.6-1c-0.7-0.4-1.2-0.8-1.5-1.3c-0.3-0.5-0.5-1.2-0.5-2
									c0-0.8,0.2-1.4,0.6-2c0.4-0.6,1-1.1,1.8-1.4c0.8-0.4,1.7-0.5,2.8-0.5c0.9,0,1.6,0.1,2.3,0.3c0.7,0.2,1.2,0.5,1.6,0.9
									c0.4,0.4,0.8,0.8,1,1.2c0.2,0.4,0.3,0.9,0.4,1.3c0,0.1,0,0.2-0.1,0.3c-0.1,0.1-0.2,0.1-0.3,0.1h-1.1c-0.1,0-0.2,0-0.3-0.1
									c-0.1-0.1-0.2-0.2-0.2-0.3c-0.1-0.6-0.4-1.1-1-1.5c-0.6-0.4-1.3-0.6-2.2-0.6c-0.9,0-1.7,0.2-2.2,0.5
									c-0.6,0.4-0.9,0.9-0.9,1.6c0,0.5,0.1,0.9,0.4,1.2s0.7,0.6,1.3,0.8c0.6,0.2,1.3,0.5,2.3,0.8c1.1,0.3,2,0.6,2.8,1
									c0.7,0.3,1.2,0.8,1.6,1.3c0.3,0.5,0.5,1.2,0.5,2c0,0.9-0.2,1.6-0.7,2.3c-0.5,0.6-1.1,1.1-2,1.4
									C501.1,129.7,500.1,129.8,499,129.8z"/>
							</g>
						</g>
					</g>
				</g>
				<g>
					<linearGradient id="SVGID_1_" gradientUnits="userSpaceOnUse" x1="101.3681" y1="62.4022" x2="130.9987" y2="99.7148">
						<stop  offset="0" style="stop-color:#FDB62B"/>
						<stop  offset="1" style="stop-color:#F06134"/>
					</linearGradient>
					<path class="st1" d="M129.7,64.7l-18.1,28.9l-5.4,8.7l-17.1-30l40.3-8.1C129.7,64.2,129.9,64.5,129.7,64.7z"/>
					<linearGradient id="SVGID_2_" gradientUnits="userSpaceOnUse" x1="69.669" y1="163.4772" x2="101.3632" y2="124.7769">
						<stop  offset="0" style="stop-color:#FDB62B"/>
						<stop  offset="1" style="stop-color:#F06134"/>
					</linearGradient>
					<path class="st2" d="M121.9,129.7l-64.8,32.4c-0.3,0.1-0.6-0.2-0.4-0.4L68,139.2l4.7-9.5H121.9z"/>
					<linearGradient id="SVGID_3_" gradientUnits="userSpaceOnUse" x1="103.5091" y1="89.6752" x2="88.6843" y2="57.8019">
						<stop  offset="0" style="stop-color:#F06134"/>
						<stop  offset="1" style="stop-color:#FDB62B"/>
					</linearGradient>
					<polygon class="st3" points="111.7,93.6 106.3,102.3 89.1,72.3 					"/>
					<linearGradient id="SVGID_4_" gradientUnits="userSpaceOnUse" x1="84.7929" y1="133.4693" x2="36.3737" y2="136.7632">
						<stop  offset="0" style="stop-color:#F06134"/>
						<stop  offset="1" style="stop-color:#FDB62B"/>
					</linearGradient>
					<polygon class="st4" points="121.9,129.7 68,139.2 72.7,129.7 					"/>
					<linearGradient id="SVGID_5_" gradientUnits="userSpaceOnUse" x1="65.1054" y1="76.1238" x2="88.618" y2="128.2055">
						<stop  offset="0" style="stop-color:#FFFFFF"/>
						<stop  offset="1" style="stop-color:#FDB62B"/>
					</linearGradient>
					<path class="st5" d="M56.9,129.7h65.1L89.1,72.3l-32.5,56.9C56.5,129.4,56.6,129.7,56.9,129.7z"/>
				</g>
			</g>
		</g>
		<rect x="0" class="st6" width="561.3" height="226.8"/>
	</g>
</g>
</svg>
