<?xml version="1.0" encoding="utf-8"?>
<!-- Generator: Adobe Illustrator 24.2.3, SVG Export Plug-In . SVG Version: 6.00 Build 0)  -->
<svg version="1.1" xmlns="http://www.w3.org/2000/svg" xmlns:xlink="http://www.w3.org/1999/xlink" x="0px" y="0px"
	 viewBox="0 0 473.4 226.8" style="enable-background:new 0 0 473.4 226.8;" xml:space="preserve">
<style type="text/css">
	.st0{fill:#FFFFFF;}
	.st1{fill:none;}
</style>
<g id="fundo">
</g>
<g id="text">
	<g>
		<g>
			<g>
				<g>
					<g>
						<g>
							<g>
								<path class="st0" d="M80.6,95.2c-7.2-0.5-10.5-2.5-10.5-6.2c0-3.6,3.6-5.6,10.3-5.6c4.9,0,9.1,1,12.9,4.1
									c0.1,0.1,0.3,0.1,0.4,0l8-8c0.1-0.1,0.1-0.4,0-0.5c-6.4-5.5-12.9-7.1-21.5-7.1c-10.3,0-23.7,4.6-23.7,17.6
									c0,12.7,12.7,16.6,23.3,17.4c8,0.4,11.2,2,11.2,5.9c0,4.1-4.9,6.8-10.1,6.7c-5.4-0.1-13-2.6-17.6-6.2
									c-0.1-0.1-0.3-0.1-0.4,0l-7.9,8c-0.1,0.1-0.1,0.4,0,0.5c8.1,8.3,16.9,9.7,25.7,9.7c16.1,0,24.2-8.5,24.2-18.5
									C104.6,98.3,91.2,95.9,80.6,95.2z"/>
								<path class="st0" d="M125.5,73.1h-13c-0.2,0-0.3,0.1-0.3,0.3v56c0,0.2,0.1,0.3,0.3,0.3h13c0.2,0,0.3-0.1,0.3-0.3v-37
									c0-0.2-0.1-0.3-0.3-0.3H115l10.7-10.7c0.1-0.1,0.1-0.1,0.1-0.2v-7.7C125.8,73.3,125.7,73.1,125.5,73.1z"/>
								<path class="st0" d="M214.2,73.1h-13c-0.2,0-0.3,0.1-0.3,0.3v56c0,0.2,0.1,0.3,0.3,0.3h13c0.2,0,0.3-0.1,0.3-0.3v-37
									c0-0.2-0.1-0.3-0.3-0.3h-10.5l10.7-10.7c0.1-0.1,0.1-0.1,0.1-0.2v-7.7C214.5,73.3,214.4,73.1,214.2,73.1z"/>
								<path class="st0" d="M239.2,57.1v72.4c0,0.2-0.1,0.3-0.3,0.3H226c-0.2,0-0.3-0.1-0.3-0.3V57.1c0-0.2,0.1-0.3,0.3-0.3h12.9
									C239,56.7,239.2,56.9,239.2,57.1z"/>
							</g>
							<path class="st0" d="M163.5,73.1c-16.5,0-29.9,13.7-29.2,30.4c0.6,15.1,13,27.5,28.1,28.1c16.7,0.6,30.4-12.7,30.4-29.2
								c0-8.1-3.3-15.4-8.6-20.7l8-8c0.2-0.2,0.1-0.6-0.2-0.6H163.5z M163.5,119c-9.2,0-16.6-7.5-16.6-16.6s7.5-16.6,16.6-16.6
								c9.2,0,16.6,7.5,16.6,16.6S172.7,119,163.5,119L163.5,119z"/>
							<path class="st0" d="M191.3,131.6h-14c1.8,2.6,2.8,5.8,2.8,9.2c0,9.2-7.5,16.7-16.6,16.7c-8.6,0-15.7-6.6-16.5-15h-12.7
								c0.8,14.8,13.2,27,28.1,27.6c16.7,0.6,30.4-12.7,30.4-29.3C192.8,137.6,192.2,134.5,191.3,131.6z"/>
							<g>
								<g>
									<g>
										<path class="st0" d="M264.9,107.4c-1.2,0-2.3-0.2-3.1-0.6c-0.8-0.4-1.5-0.9-1.9-1.5c-0.4-0.6-0.7-1.2-0.7-1.9
											c0-0.1,0-0.2,0.1-0.3c0.1-0.1,0.2-0.1,0.3-0.1h1.1c0.2,0,0.3,0,0.4,0.1c0.1,0.1,0.1,0.2,0.2,0.3c0.1,0.3,0.2,0.7,0.5,1
											c0.3,0.3,0.7,0.6,1.2,0.8c0.5,0.2,1.1,0.3,1.9,0.3c1.2,0,2.1-0.2,2.7-0.6c0.6-0.4,0.9-1,0.9-1.7c0-0.5-0.2-0.9-0.5-1.2
											c-0.3-0.3-0.8-0.6-1.4-0.8c-0.6-0.2-1.4-0.5-2.4-0.8c-1-0.3-1.9-0.6-2.6-1s-1.2-0.8-1.5-1.3c-0.3-0.5-0.5-1.2-0.5-2
											c0-0.8,0.2-1.4,0.6-2c0.4-0.6,1-1.1,1.8-1.4c0.8-0.4,1.7-0.5,2.8-0.5c0.9,0,1.6,0.1,2.3,0.3c0.7,0.2,1.2,0.5,1.6,0.9
											c0.4,0.4,0.8,0.8,1,1.2c0.2,0.4,0.3,0.9,0.4,1.3c0,0.1,0,0.2-0.1,0.3c-0.1,0.1-0.2,0.1-0.3,0.1h-1.1c-0.1,0-0.2,0-0.3-0.1
											s-0.2-0.2-0.2-0.3c-0.1-0.6-0.4-1.1-1-1.5c-0.6-0.4-1.3-0.6-2.2-0.6c-0.9,0-1.7,0.2-2.2,0.5s-0.9,0.9-0.9,1.6
											c0,0.5,0.1,0.9,0.4,1.2c0.3,0.3,0.7,0.6,1.3,0.8c0.6,0.2,1.3,0.5,2.3,0.8c1.1,0.3,2,0.6,2.8,1c0.7,0.3,1.2,0.8,1.6,1.3
											c0.3,0.5,0.5,1.2,0.5,2c0,0.9-0.2,1.6-0.7,2.3s-1.1,1.1-2,1.4C267,107.2,266,107.4,264.9,107.4z"/>
										<path class="st0" d="M280.7,107.4c-1.3,0-2.4-0.2-3.2-0.7c-0.9-0.5-1.5-1.1-1.9-2c-0.4-0.9-0.7-1.9-0.7-3
											c0-0.6,0-1.2,0-1.9s0-1.3,0-1.9c0-1.1,0.3-2.1,0.7-3c0.4-0.9,1.1-1.5,1.9-2c0.9-0.5,1.9-0.7,3.2-0.7c1,0,1.8,0.1,2.6,0.4
											c0.7,0.3,1.3,0.6,1.8,1.1c0.5,0.5,0.9,1,1.1,1.5c0.3,0.6,0.4,1.1,0.4,1.7c0,0.1,0,0.2-0.1,0.3c-0.1,0.1-0.2,0.1-0.3,0.1
											H285c-0.1,0-0.2,0-0.3-0.1c-0.1-0.1-0.2-0.2-0.2-0.4c-0.2-1.1-0.7-1.9-1.3-2.3c-0.7-0.4-1.5-0.6-2.5-0.6
											c-1.1,0-2,0.3-2.7,1c-0.7,0.6-1,1.7-1.1,3.1c0,1.2,0,2.3,0,3.5c0.1,1.4,0.4,2.4,1.1,3.1c0.7,0.6,1.6,1,2.7,1
											c1,0,1.8-0.2,2.5-0.6c0.7-0.4,1.1-1.2,1.3-2.3c0-0.2,0.1-0.3,0.2-0.4c0.1-0.1,0.2-0.1,0.3-0.1h1.2c0.1,0,0.2,0,0.3,0.1
											c0.1,0.1,0.1,0.2,0.1,0.3c0,0.6-0.2,1.2-0.4,1.7c-0.3,0.6-0.6,1.1-1.1,1.5c-0.5,0.5-1.1,0.8-1.8,1.1
											C282.5,107.2,281.6,107.4,280.7,107.4z"/>
										<path class="st0" d="M292,107.1c-0.2,0-0.3,0-0.4-0.1c-0.1-0.1-0.1-0.2-0.1-0.3V92.9c0-0.1,0-0.3,0.1-0.3
											c0.1-0.1,0.2-0.1,0.4-0.1h1.1c0.1,0,0.3,0,0.3,0.1c0.1,0.1,0.1,0.2,0.1,0.3v13.8c0,0.1,0,0.3-0.1,0.3
											c-0.1,0.1-0.2,0.1-0.3,0.1H292z"/>
										<path class="st0" d="M299.9,107.1c-0.2,0-0.3,0-0.4-0.1c-0.1-0.1-0.1-0.2-0.1-0.3V92.9c0-0.2,0-0.3,0.1-0.4
											c0.1-0.1,0.2-0.1,0.4-0.1h8.7c0.2,0,0.3,0,0.4,0.1c0.1,0.1,0.1,0.2,0.1,0.4v0.8c0,0.2,0,0.3-0.1,0.4
											c-0.1,0.1-0.2,0.1-0.4,0.1h-7.2v4.6h6.7c0.2,0,0.3,0,0.4,0.1c0.1,0.1,0.1,0.2,0.1,0.4v0.8c0,0.1,0,0.3-0.1,0.3
											c-0.1,0.1-0.2,0.1-0.4,0.1h-6.7v4.8h7.3c0.2,0,0.3,0,0.4,0.1c0.1,0.1,0.1,0.2,0.1,0.4v0.8c0,0.1,0,0.3-0.1,0.3
											c-0.1,0.1-0.2,0.1-0.4,0.1H299.9z"/>
										<path class="st0" d="M314.8,107.1c-0.2,0-0.3,0-0.4-0.1c-0.1-0.1-0.1-0.2-0.1-0.3V92.9c0-0.2,0-0.3,0.1-0.4
											c0.1-0.1,0.2-0.1,0.4-0.1h1c0.2,0,0.3,0,0.4,0.1c0.1,0.1,0.1,0.1,0.1,0.2l7,10.8V92.9c0-0.2,0-0.3,0.1-0.4
											c0.1-0.1,0.2-0.1,0.4-0.1h1c0.2,0,0.3,0,0.4,0.1c0.1,0.1,0.1,0.2,0.1,0.4v13.8c0,0.1,0,0.3-0.1,0.4
											c-0.1,0.1-0.2,0.1-0.3,0.1h-1c-0.2,0-0.3,0-0.3-0.1c-0.1-0.1-0.1-0.1-0.2-0.2l-7-10.7v10.5c0,0.1,0,0.3-0.1,0.3
											c-0.1,0.1-0.2,0.1-0.4,0.1H314.8z"/>
										<path class="st0" d="M334.8,107.1c-0.1,0-0.3,0-0.3-0.1c-0.1-0.1-0.1-0.2-0.1-0.3V94.2h-4.1c-0.1,0-0.3,0-0.3-0.1
											c-0.1-0.1-0.1-0.2-0.1-0.3v-0.9c0-0.2,0-0.3,0.1-0.4c0.1-0.1,0.2-0.1,0.3-0.1h10.2c0.2,0,0.3,0,0.4,0.1
											c0.1,0.1,0.1,0.2,0.1,0.4v0.9c0,0.1,0,0.3-0.1,0.3c-0.1,0.1-0.2,0.1-0.4,0.1h-4v12.4c0,0.1,0,0.3-0.1,0.3
											c-0.1,0.1-0.2,0.1-0.4,0.1H334.8z"/>
										<path class="st0" d="M345.9,107.1c-0.2,0-0.3,0-0.4-0.1c-0.1-0.1-0.1-0.2-0.1-0.3V92.9c0-0.1,0-0.3,0.1-0.3
											c0.1-0.1,0.2-0.1,0.4-0.1h1.1c0.1,0,0.3,0,0.3,0.1c0.1,0.1,0.1,0.2,0.1,0.3v13.8c0,0.1,0,0.3-0.1,0.3
											c-0.1,0.1-0.2,0.1-0.3,0.1H345.9z"/>
										<path class="st0" d="M353.7,107.1c-0.2,0-0.3,0-0.4-0.1c-0.1-0.1-0.1-0.2-0.1-0.3V92.9c0-0.2,0-0.3,0.1-0.4
											c0.1-0.1,0.2-0.1,0.4-0.1h8.6c0.2,0,0.3,0,0.4,0.1c0.1,0.1,0.1,0.2,0.1,0.4v0.8c0,0.2,0,0.3-0.1,0.4
											c-0.1,0.1-0.2,0.1-0.4,0.1h-7.1v4.9h6.6c0.2,0,0.3,0,0.4,0.1c0.1,0.1,0.1,0.2,0.1,0.4v0.8c0,0.1,0,0.3-0.1,0.3
											c-0.1,0.1-0.2,0.1-0.4,0.1h-6.6v5.7c0,0.1,0,0.3-0.1,0.3c-0.1,0.1-0.2,0.1-0.4,0.1H353.7z"/>
										<path class="st0" d="M368.2,107.1c-0.2,0-0.3,0-0.4-0.1c-0.1-0.1-0.1-0.2-0.1-0.3V92.9c0-0.1,0-0.3,0.1-0.3
											c0.1-0.1,0.2-0.1,0.4-0.1h1.1c0.1,0,0.3,0,0.3,0.1c0.1,0.1,0.1,0.2,0.1,0.3v13.8c0,0.1,0,0.3-0.1,0.3
											c-0.1,0.1-0.2,0.1-0.3,0.1H368.2z"/>
										<path class="st0" d="M380.9,107.4c-1.3,0-2.4-0.2-3.2-0.7c-0.9-0.5-1.5-1.1-1.9-2c-0.4-0.9-0.7-1.9-0.7-3
											c0-0.6,0-1.2,0-1.9s0-1.3,0-1.9c0-1.1,0.3-2.1,0.7-3c0.4-0.9,1.1-1.5,1.9-2c0.9-0.5,1.9-0.7,3.2-0.7c1,0,1.8,0.1,2.6,0.4
											c0.7,0.3,1.3,0.6,1.8,1.1c0.5,0.5,0.9,1,1.1,1.5c0.3,0.6,0.4,1.1,0.4,1.7c0,0.1,0,0.2-0.1,0.3c-0.1,0.1-0.2,0.1-0.3,0.1
											h-1.2c-0.1,0-0.2,0-0.3-0.1c-0.1-0.1-0.2-0.2-0.2-0.4c-0.2-1.1-0.7-1.9-1.3-2.3c-0.7-0.4-1.5-0.6-2.5-0.6
											c-1.1,0-2,0.3-2.7,1c-0.7,0.6-1,1.7-1.1,3.1c0,1.2,0,2.3,0,3.5c0.1,1.4,0.4,2.4,1.1,3.1c0.7,0.6,1.6,1,2.7,1
											c1,0,1.8-0.2,2.5-0.6c0.7-0.4,1.1-1.2,1.3-2.3c0-0.2,0.1-0.3,0.2-0.4c0.1-0.1,0.2-0.1,0.3-0.1h1.2c0.1,0,0.2,0,0.3,0.1
											c0.1,0.1,0.1,0.2,0.1,0.3c0,0.6-0.2,1.2-0.4,1.7c-0.3,0.6-0.6,1.1-1.1,1.5c-0.5,0.5-1.1,0.8-1.8,1.1
											C382.7,107.2,381.9,107.4,380.9,107.4z"/>
									</g>
								</g>
								<g>
									<path class="st0" d="M260.6,129.6c-0.2,0-0.3,0-0.4-0.1c-0.1-0.1-0.1-0.2-0.1-0.3v-13.8c0-0.2,0-0.3,0.1-0.4
										c0.1-0.1,0.2-0.1,0.4-0.1h8.7c0.2,0,0.3,0,0.4,0.1c0.1,0.1,0.1,0.2,0.1,0.4v0.8c0,0.2,0,0.3-0.1,0.4
										c-0.1,0.1-0.2,0.1-0.4,0.1h-7.2v4.6h6.7c0.2,0,0.3,0,0.4,0.1c0.1,0.1,0.1,0.2,0.1,0.4v0.8c0,0.1,0,0.3-0.1,0.3
										c-0.1,0.1-0.2,0.1-0.4,0.1h-6.7v4.8h7.3c0.2,0,0.3,0,0.4,0.1c0.1,0.1,0.1,0.2,0.1,0.4v0.8c0,0.1,0,0.3-0.1,0.3
										c-0.1,0.1-0.2,0.1-0.4,0.1H260.6z"/>
									<path class="st0" d="M275.5,129.6c-0.2,0-0.3,0-0.4-0.1c-0.1-0.1-0.1-0.2-0.1-0.3v-13.8c0-0.2,0-0.3,0.1-0.4
										c0.1-0.1,0.2-0.1,0.4-0.1h1c0.2,0,0.3,0,0.4,0.1c0.1,0.1,0.1,0.1,0.1,0.2l7,10.8v-10.6c0-0.2,0-0.3,0.1-0.4
										c0.1-0.1,0.2-0.1,0.4-0.1h1c0.2,0,0.3,0,0.4,0.1c0.1,0.1,0.1,0.2,0.1,0.4v13.8c0,0.1,0,0.3-0.1,0.4
										c-0.1,0.1-0.2,0.1-0.3,0.1h-1c-0.2,0-0.3,0-0.3-0.1c-0.1-0.1-0.1-0.1-0.2-0.2l-7-10.7v10.5c0,0.1,0,0.3-0.1,0.3
										c-0.1,0.1-0.2,0.1-0.4,0.1H275.5z"/>
									<path class="st0" d="M295.5,129.6c-0.1,0-0.3,0-0.3-0.1c-0.1-0.1-0.1-0.2-0.1-0.3v-12.4h-4.1c-0.1,0-0.3,0-0.3-0.1
										c-0.1-0.1-0.1-0.2-0.1-0.3v-0.9c0-0.2,0-0.3,0.1-0.4c0.1-0.1,0.2-0.1,0.3-0.1h10.2c0.2,0,0.3,0,0.4,0.1
										c0.1,0.1,0.1,0.2,0.1,0.4v0.9c0,0.1,0,0.3-0.1,0.3c-0.1,0.1-0.2,0.1-0.4,0.1h-4v12.4c0,0.1,0,0.3-0.1,0.3
										c-0.1,0.1-0.2,0.1-0.4,0.1H295.5z"/>
									<path class="st0" d="M306.6,129.6c-0.2,0-0.3,0-0.4-0.1c-0.1-0.1-0.1-0.2-0.1-0.3v-13.8c0-0.2,0-0.3,0.1-0.4
										c0.1-0.1,0.2-0.1,0.4-0.1h8.7c0.2,0,0.3,0,0.4,0.1c0.1,0.1,0.1,0.2,0.1,0.4v0.8c0,0.2,0,0.3-0.1,0.4
										c-0.1,0.1-0.2,0.1-0.4,0.1h-7.2v4.6h6.7c0.2,0,0.3,0,0.4,0.1c0.1,0.1,0.1,0.2,0.1,0.4v0.8c0,0.1,0,0.3-0.1,0.3
										c-0.1,0.1-0.2,0.1-0.4,0.1h-6.7v4.8h7.3c0.2,0,0.3,0,0.4,0.1c0.1,0.1,0.1,0.2,0.1,0.4v0.8c0,0.1,0,0.3-0.1,0.3
										c-0.1,0.1-0.2,0.1-0.4,0.1H306.6z"/>
									<path class="st0" d="M321.5,129.6c-0.2,0-0.3,0-0.4-0.1c-0.1-0.1-0.1-0.2-0.1-0.3v-13.8c0-0.2,0-0.3,0.1-0.4
										c0.1-0.1,0.2-0.1,0.4-0.1h5.2c1.6,0,2.8,0.4,3.8,1.1c0.9,0.7,1.4,1.9,1.4,3.3c0,1.1-0.3,2-0.8,2.6
										c-0.5,0.7-1.3,1.2-2.2,1.4l3.3,5.6c0,0.1,0.1,0.2,0.1,0.2c0,0.1,0,0.2-0.1,0.3c-0.1,0.1-0.2,0.1-0.3,0.1h-1
										c-0.2,0-0.4-0.1-0.5-0.2c-0.1-0.1-0.2-0.3-0.3-0.4l-3.1-5.4h-3.7v5.4c0,0.1,0,0.3-0.1,0.3c-0.1,0.1-0.2,0.1-0.4,0.1H321.5z
										 M323.1,121.9h3.5c1.1,0,1.8-0.2,2.4-0.7s0.8-1.1,0.8-2c0-0.9-0.3-1.5-0.8-2c-0.5-0.4-1.3-0.7-2.4-0.7h-3.5V121.9z"/>
									<path class="st0" d="M337.4,129.6c-0.2,0-0.3,0-0.4-0.1c-0.1-0.1-0.1-0.2-0.1-0.3v-13.8c0-0.2,0-0.3,0.1-0.4
										c0.1-0.1,0.2-0.1,0.4-0.1h5.4c1,0,1.9,0.2,2.7,0.5c0.8,0.3,1.4,0.8,1.8,1.5c0.4,0.7,0.6,1.5,0.6,2.5c0,1-0.2,1.8-0.6,2.5
										c-0.4,0.7-1,1.2-1.8,1.5c-0.8,0.3-1.7,0.5-2.7,0.5H339v5.3c0,0.1,0,0.3-0.1,0.3c-0.1,0.1-0.2,0.1-0.4,0.1H337.4z
										 M339,122.1h3.7c1,0,1.8-0.2,2.3-0.7c0.5-0.5,0.8-1.1,0.8-2c0-0.9-0.3-1.5-0.8-2c-0.5-0.5-1.3-0.7-2.4-0.7H339V122.1z"/>
									<path class="st0" d="M353.1,129.6c-0.2,0-0.3,0-0.4-0.1c-0.1-0.1-0.1-0.2-0.1-0.3v-13.8c0-0.2,0-0.3,0.1-0.4
										c0.1-0.1,0.2-0.1,0.4-0.1h5.2c1.6,0,2.8,0.4,3.8,1.1c0.9,0.7,1.4,1.9,1.4,3.3c0,1.1-0.3,2-0.8,2.6
										c-0.5,0.7-1.3,1.2-2.2,1.4l3.3,5.6c0,0.1,0.1,0.2,0.1,0.2c0,0.1,0,0.2-0.1,0.3c-0.1,0.1-0.2,0.1-0.3,0.1h-1
										c-0.2,0-0.4-0.1-0.5-0.2c-0.1-0.1-0.2-0.3-0.3-0.4l-3.1-5.4h-3.7v5.4c0,0.1,0,0.3-0.1,0.3c-0.1,0.1-0.2,0.1-0.4,0.1H353.1z
										 M354.7,121.9h3.5c1.1,0,1.8-0.2,2.4-0.7c0.5-0.4,0.8-1.1,0.8-2c0-0.9-0.3-1.5-0.8-2c-0.5-0.4-1.3-0.7-2.4-0.7h-3.5V121.9z
										"/>
									<path class="st0" d="M369,129.6c-0.2,0-0.3,0-0.4-0.1c-0.1-0.1-0.1-0.2-0.1-0.3v-13.8c0-0.1,0-0.3,0.1-0.3
										c0.1-0.1,0.2-0.1,0.4-0.1h1.1c0.1,0,0.3,0,0.3,0.1c0.1,0.1,0.1,0.2,0.1,0.3v13.8c0,0.1,0,0.3-0.1,0.3
										c-0.1,0.1-0.2,0.1-0.3,0.1H369z"/>
									<path class="st0" d="M381.2,129.9c-1.2,0-2.3-0.2-3.1-0.6c-0.8-0.4-1.5-0.9-1.9-1.5c-0.4-0.6-0.7-1.2-0.7-1.9
										c0-0.1,0-0.2,0.1-0.3c0.1-0.1,0.2-0.1,0.3-0.1h1.1c0.2,0,0.3,0,0.4,0.1c0.1,0.1,0.1,0.2,0.2,0.3c0.1,0.3,0.2,0.7,0.5,1
										c0.3,0.3,0.7,0.6,1.2,0.8c0.5,0.2,1.1,0.3,1.9,0.3c1.2,0,2.1-0.2,2.7-0.6c0.6-0.4,0.9-1,0.9-1.7c0-0.5-0.2-0.9-0.5-1.2
										c-0.3-0.3-0.8-0.6-1.4-0.8c-0.6-0.2-1.4-0.5-2.4-0.8c-1-0.3-1.9-0.6-2.6-1s-1.2-0.8-1.5-1.3c-0.3-0.5-0.5-1.2-0.5-2
										c0-0.8,0.2-1.4,0.6-2c0.4-0.6,1-1.1,1.8-1.4c0.8-0.4,1.7-0.5,2.8-0.5c0.9,0,1.6,0.1,2.3,0.3c0.7,0.2,1.2,0.5,1.6,0.9
										c0.4,0.4,0.8,0.8,1,1.2c0.2,0.4,0.3,0.9,0.4,1.3c0,0.1,0,0.2-0.1,0.3c-0.1,0.1-0.2,0.1-0.3,0.1h-1.1c-0.1,0-0.2,0-0.3-0.1
										c-0.1-0.1-0.2-0.2-0.2-0.3c-0.1-0.6-0.4-1.1-1-1.5c-0.6-0.4-1.3-0.6-2.2-0.6c-0.9,0-1.7,0.2-2.2,0.5
										c-0.6,0.4-0.9,0.9-0.9,1.6c0,0.5,0.1,0.9,0.4,1.2c0.3,0.3,0.7,0.6,1.3,0.8c0.6,0.2,1.3,0.5,2.3,0.8c1.1,0.3,2,0.6,2.8,1
										c0.7,0.3,1.2,0.8,1.6,1.3c0.3,0.5,0.5,1.2,0.5,2c0,0.9-0.2,1.6-0.7,2.3s-1.1,1.1-2,1.4
										C383.3,129.7,382.3,129.9,381.2,129.9z"/>
									<path class="st0" d="M392.1,129.6c-0.2,0-0.3,0-0.4-0.1c-0.1-0.1-0.1-0.2-0.1-0.3v-13.8c0-0.2,0-0.3,0.1-0.4
										c0.1-0.1,0.2-0.1,0.4-0.1h8.7c0.2,0,0.3,0,0.4,0.1c0.1,0.1,0.1,0.2,0.1,0.4v0.8c0,0.2,0,0.3-0.1,0.4
										c-0.1,0.1-0.2,0.1-0.4,0.1h-7.2v4.6h6.7c0.2,0,0.3,0,0.4,0.1c0.1,0.1,0.1,0.2,0.1,0.4v0.8c0,0.1,0,0.3-0.1,0.3
										c-0.1,0.1-0.2,0.1-0.4,0.1h-6.7v4.8h7.3c0.2,0,0.3,0,0.4,0.1c0.1,0.1,0.1,0.2,0.1,0.4v0.8c0,0.1,0,0.3-0.1,0.3
										c-0.1,0.1-0.2,0.1-0.4,0.1H392.1z"/>
									<path class="st0" d="M411.3,129.9c-1.2,0-2.3-0.2-3.1-0.6c-0.8-0.4-1.5-0.9-1.9-1.5c-0.4-0.6-0.7-1.2-0.7-1.9
										c0-0.1,0-0.2,0.1-0.3c0.1-0.1,0.2-0.1,0.3-0.1h1.1c0.2,0,0.3,0,0.4,0.1c0.1,0.1,0.1,0.2,0.2,0.3c0.1,0.3,0.2,0.7,0.5,1
										c0.3,0.3,0.7,0.6,1.2,0.8c0.5,0.2,1.1,0.3,1.9,0.3c1.2,0,2.1-0.2,2.7-0.6c0.6-0.4,0.9-1,0.9-1.7c0-0.5-0.2-0.9-0.5-1.2
										c-0.3-0.3-0.8-0.6-1.4-0.8c-0.6-0.2-1.4-0.5-2.4-0.8c-1-0.3-1.9-0.6-2.6-1s-1.2-0.8-1.5-1.3c-0.3-0.5-0.5-1.2-0.5-2
										c0-0.8,0.2-1.4,0.6-2c0.4-0.6,1-1.1,1.8-1.4c0.8-0.4,1.7-0.5,2.8-0.5c0.9,0,1.6,0.1,2.3,0.3c0.7,0.2,1.2,0.5,1.6,0.9
										c0.4,0.4,0.8,0.8,1,1.2c0.2,0.4,0.3,0.9,0.4,1.3c0,0.1,0,0.2-0.1,0.3c-0.1,0.1-0.2,0.1-0.3,0.1h-1.1c-0.1,0-0.2,0-0.3-0.1
										s-0.2-0.2-0.2-0.3c-0.1-0.6-0.4-1.1-1-1.5c-0.6-0.4-1.3-0.6-2.2-0.6c-0.9,0-1.7,0.2-2.2,0.5c-0.6,0.4-0.9,0.9-0.9,1.6
										c0,0.5,0.1,0.9,0.4,1.2c0.3,0.3,0.7,0.6,1.3,0.8c0.6,0.2,1.3,0.5,2.3,0.8c1.1,0.3,2,0.6,2.8,1c0.7,0.3,1.2,0.8,1.6,1.3
										c0.3,0.5,0.5,1.2,0.5,2c0,0.9-0.2,1.6-0.7,2.3c-0.5,0.6-1.1,1.1-2,1.4C413.4,129.7,412.4,129.9,411.3,129.9z"/>
								</g>
							</g>
						</g>
					</g>
				</g>
			</g>
		</g>
		<rect class="st1" width="473.4" height="226.8"/>
	</g>
</g>
</svg>
