<?xml version="1.0" encoding="utf-8"?>
<!-- Generator: Adobe Illustrator 24.2.3, SVG Export Plug-In . SVG Version: 6.00 Build 0)  -->
<svg version="1.1" xmlns="http://www.w3.org/2000/svg" xmlns:xlink="http://www.w3.org/1999/xlink" x="0px" y="0px"
	 viewBox="0 0 561.3 226.8" style="enable-background:new 0 0 561.3 226.8;" xml:space="preserve">
<style type="text/css">
	.st0{fill:none;}
	.st1{fill:#231F20;}
</style>
<g id="fundo">
</g>
<g id="text">
	<g>
		<rect x="0" class="st0" width="561.3" height="226.8"/>
		<g>
			<g>
				<g>
					<g>
						<path class="st1" d="M168.7,95.2c-7.2-0.5-10.5-2.5-10.5-6.1c0-3.5,3.6-5.6,10.2-5.6c4.9,0,9.1,1,12.9,4.1
							c0.1,0.1,0.3,0.1,0.4,0l8-8c0.1-0.1,0.1-0.4,0-0.5c-6.4-5.5-12.9-7.1-21.5-7.1c-10.2,0-23.7,4.5-23.7,17.5
							c0,12.7,12.6,16.6,23.2,17.4c8,0.4,11.1,2,11.1,5.9c0,4.1-4.9,6.8-10.1,6.7c-5.4-0.1-13-2.6-17.5-6.1c-0.1-0.1-0.3-0.1-0.4,0
							l-7.9,8c-0.1,0.1-0.1,0.4,0,0.5c8.1,8.3,16.9,9.7,25.7,9.7c16,0,24.1-8.5,24.1-18.4C192.7,98.2,179.3,95.8,168.7,95.2z"/>
						<path class="st1" d="M213.6,73.2h-12.9c-0.2,0-0.3,0.1-0.3,0.3v55.9c0,0.2,0.1,0.3,0.3,0.3h12.9c0.2,0,0.3-0.1,0.3-0.3V92.4
							c0-0.2-0.1-0.3-0.3-0.3h-10.5l10.7-10.7c0.1-0.1,0.1-0.1,0.1-0.2v-7.7C213.9,73.3,213.7,73.2,213.6,73.2z"/>
						<path class="st1" d="M302.1,73.2h-13c-0.2,0-0.3,0.1-0.3,0.3v55.9c0,0.2,0.1,0.3,0.3,0.3h13c0.2,0,0.3-0.1,0.3-0.3V92.4
							c0-0.2-0.1-0.3-0.3-0.3h-10.5l10.7-10.7c0.1-0.1,0.1-0.1,0.1-0.2v-7.7C302.4,73.3,302.3,73.2,302.1,73.2z"/>
						<path class="st1" d="M327,57.1v72.2c0,0.2-0.1,0.3-0.3,0.3h-12.8c-0.2,0-0.3-0.1-0.3-0.3V57.1c0-0.2,0.1-0.3,0.3-0.3h12.8
							C326.9,56.8,327,56.9,327,57.1z"/>
					</g>
					<path class="st1" d="M251.5,73.1c-16.5,0-29.8,13.7-29.2,30.4c0.6,15,13,27.5,28.1,28.1c16.7,0.6,30.4-12.7,30.4-29.2
						c0-8.1-3.3-15.4-8.6-20.7l8-8c0.2-0.2,0.1-0.6-0.2-0.6H251.5z M251.5,119c-9.2,0-16.6-7.5-16.6-16.6s7.5-16.6,16.6-16.6
						s16.6,7.5,16.6,16.6S260.6,119,251.5,119L251.5,119z"/>
					<path class="st1" d="M279.2,131.6h-13.9c1.8,2.6,2.8,5.8,2.8,9.2c0,9.2-7.4,16.6-16.6,16.6c-8.6,0-15.7-6.5-16.5-15h-12.7
						c0.8,14.8,13.2,27,28.1,27.5c16.6,0.6,30.3-12.7,30.3-29.2C280.7,137.5,280.2,134.5,279.2,131.6z"/>
					<g>
						<g>
							<g>
								<path class="st1" d="M352.7,107.3c-1.2,0-2.2-0.2-3.1-0.6c-0.8-0.4-1.5-0.9-1.9-1.5c-0.4-0.6-0.7-1.2-0.7-1.9
									c0-0.1,0-0.2,0.1-0.3c0.1-0.1,0.2-0.1,0.3-0.1h1.1c0.2,0,0.3,0,0.4,0.1s0.1,0.2,0.2,0.3c0.1,0.3,0.2,0.7,0.5,1
									c0.3,0.3,0.7,0.6,1.2,0.8c0.5,0.2,1.1,0.3,1.9,0.3c1.2,0,2.1-0.2,2.7-0.6c0.6-0.4,0.9-1,0.9-1.7c0-0.5-0.2-0.9-0.5-1.2
									c-0.3-0.3-0.8-0.6-1.4-0.8c-0.6-0.2-1.4-0.5-2.4-0.8c-1-0.3-1.9-0.6-2.5-1c-0.7-0.4-1.2-0.8-1.5-1.3c-0.3-0.5-0.5-1.2-0.5-2
									c0-0.8,0.2-1.4,0.6-2c0.4-0.6,1-1.1,1.8-1.4c0.8-0.4,1.7-0.5,2.8-0.5c0.9,0,1.6,0.1,2.3,0.3c0.7,0.2,1.2,0.5,1.6,0.9
									c0.4,0.4,0.8,0.8,1,1.2c0.2,0.4,0.3,0.9,0.4,1.3c0,0.1,0,0.2-0.1,0.3c-0.1,0.1-0.2,0.1-0.3,0.1h-1.1c-0.1,0-0.2,0-0.3-0.1
									s-0.2-0.2-0.2-0.3c-0.1-0.6-0.4-1.1-1-1.5c-0.6-0.4-1.3-0.6-2.2-0.6c-0.9,0-1.7,0.2-2.2,0.5s-0.9,0.9-0.9,1.6
									c0,0.5,0.1,0.9,0.4,1.2c0.3,0.3,0.7,0.6,1.3,0.8s1.3,0.5,2.3,0.8c1.1,0.3,2,0.6,2.8,1c0.7,0.3,1.2,0.8,1.6,1.3
									c0.3,0.5,0.5,1.2,0.5,2c0,0.9-0.2,1.6-0.7,2.3c-0.5,0.6-1.1,1.1-1.9,1.4C354.8,107.2,353.8,107.3,352.7,107.3z"/>
								<path class="st1" d="M368.4,107.3c-1.3,0-2.4-0.2-3.2-0.7c-0.9-0.5-1.5-1.1-1.9-2c-0.4-0.9-0.7-1.9-0.7-3c0-0.6,0-1.2,0-1.9
									c0-0.7,0-1.3,0-1.9c0-1.1,0.3-2.1,0.7-3c0.4-0.9,1.1-1.5,1.9-2c0.8-0.5,1.9-0.7,3.2-0.7c1,0,1.8,0.1,2.5,0.4
									c0.7,0.3,1.3,0.6,1.8,1.1c0.5,0.4,0.9,1,1.1,1.5c0.3,0.6,0.4,1.1,0.4,1.7c0,0.1,0,0.2-0.1,0.3c-0.1,0.1-0.2,0.1-0.3,0.1
									h-1.2c-0.1,0-0.2,0-0.3-0.1c-0.1-0.1-0.2-0.2-0.2-0.4c-0.2-1.1-0.7-1.8-1.3-2.3c-0.7-0.4-1.5-0.6-2.5-0.6
									c-1.1,0-2,0.3-2.7,1c-0.7,0.6-1,1.7-1.1,3.1c0,1.2,0,2.3,0,3.5c0.1,1.4,0.4,2.4,1.1,3.1c0.7,0.6,1.6,1,2.7,1
									c1,0,1.8-0.2,2.5-0.6c0.7-0.4,1.1-1.2,1.3-2.3c0-0.2,0.1-0.3,0.2-0.4c0.1-0.1,0.2-0.1,0.3-0.1h1.2c0.1,0,0.2,0,0.3,0.1
									c0.1,0.1,0.1,0.2,0.1,0.3c0,0.6-0.2,1.2-0.4,1.7c-0.3,0.6-0.6,1.1-1.1,1.5c-0.5,0.4-1.1,0.8-1.8,1.1
									C370.3,107.2,369.4,107.3,368.4,107.3z"/>
								<path class="st1" d="M379.8,107.1c-0.2,0-0.3,0-0.4-0.1c-0.1-0.1-0.1-0.2-0.1-0.3V92.9c0-0.1,0-0.3,0.1-0.3
									c0.1-0.1,0.2-0.1,0.4-0.1h1.1c0.1,0,0.3,0,0.3,0.1c0.1,0.1,0.1,0.2,0.1,0.3v13.8c0,0.1,0,0.3-0.1,0.3
									c-0.1,0.1-0.2,0.1-0.3,0.1H379.8z"/>
								<path class="st1" d="M387.6,107.1c-0.2,0-0.3,0-0.4-0.1c-0.1-0.1-0.1-0.2-0.1-0.3V92.9c0-0.2,0-0.3,0.1-0.4
									c0.1-0.1,0.2-0.1,0.4-0.1h8.7c0.2,0,0.3,0,0.4,0.1c0.1,0.1,0.1,0.2,0.1,0.4v0.8c0,0.2,0,0.3-0.1,0.4
									c-0.1,0.1-0.2,0.1-0.4,0.1h-7.2v4.6h6.7c0.2,0,0.3,0,0.4,0.1c0.1,0.1,0.1,0.2,0.1,0.4v0.8c0,0.1,0,0.3-0.1,0.3
									c-0.1,0.1-0.2,0.1-0.4,0.1h-6.7v4.8h7.3c0.2,0,0.3,0,0.4,0.1c0.1,0.1,0.1,0.2,0.1,0.4v0.8c0,0.1,0,0.3-0.1,0.3
									c-0.1,0.1-0.2,0.1-0.4,0.1H387.6z"/>
								<path class="st1" d="M402.5,107.1c-0.2,0-0.3,0-0.4-0.1c-0.1-0.1-0.1-0.2-0.1-0.3V92.9c0-0.2,0-0.3,0.1-0.4
									c0.1-0.1,0.2-0.1,0.4-0.1h1c0.2,0,0.3,0,0.4,0.1c0.1,0.1,0.1,0.1,0.1,0.2l7,10.7V92.9c0-0.2,0-0.3,0.1-0.4
									c0.1-0.1,0.2-0.1,0.4-0.1h1c0.2,0,0.3,0,0.4,0.1s0.1,0.2,0.1,0.4v13.7c0,0.1,0,0.3-0.1,0.4c-0.1,0.1-0.2,0.1-0.3,0.1h-1
									c-0.2,0-0.3,0-0.3-0.1c-0.1-0.1-0.1-0.1-0.2-0.2l-7-10.6v10.5c0,0.1,0,0.3-0.1,0.3c-0.1,0.1-0.2,0.1-0.4,0.1H402.5z"/>
								<path class="st1" d="M422.5,107.1c-0.1,0-0.3,0-0.3-0.1c-0.1-0.1-0.1-0.2-0.1-0.3V94.2h-4c-0.1,0-0.3,0-0.3-0.1
									c-0.1-0.1-0.1-0.2-0.1-0.3v-0.9c0-0.2,0-0.3,0.1-0.4c0.1-0.1,0.2-0.1,0.3-0.1h10.2c0.2,0,0.3,0,0.4,0.1s0.1,0.2,0.1,0.4v0.9
									c0,0.1,0,0.3-0.1,0.3s-0.2,0.1-0.4,0.1h-4v12.4c0,0.1,0,0.3-0.1,0.3c-0.1,0.1-0.2,0.1-0.4,0.1H422.5z"/>
								<path class="st1" d="M433.5,107.1c-0.2,0-0.3,0-0.4-0.1c-0.1-0.1-0.1-0.2-0.1-0.3V92.9c0-0.1,0-0.3,0.1-0.3
									c0.1-0.1,0.2-0.1,0.4-0.1h1.1c0.1,0,0.3,0,0.3,0.1c0.1,0.1,0.1,0.2,0.1,0.3v13.8c0,0.1,0,0.3-0.1,0.3
									c-0.1,0.1-0.2,0.1-0.3,0.1H433.5z"/>
								<path class="st1" d="M441.4,107.1c-0.2,0-0.3,0-0.4-0.1c-0.1-0.1-0.1-0.2-0.1-0.3V92.9c0-0.2,0-0.3,0.1-0.4
									c0.1-0.1,0.2-0.1,0.4-0.1h8.6c0.2,0,0.3,0,0.4,0.1c0.1,0.1,0.1,0.2,0.1,0.4v0.8c0,0.2,0,0.3-0.1,0.4
									c-0.1,0.1-0.2,0.1-0.4,0.1h-7v4.9h6.6c0.2,0,0.3,0,0.4,0.1s0.1,0.2,0.1,0.4v0.8c0,0.1,0,0.3-0.1,0.3s-0.2,0.1-0.4,0.1H443
									v5.7c0,0.1,0,0.3-0.1,0.3s-0.2,0.1-0.4,0.1H441.4z"/>
								<path class="st1" d="M455.8,107.1c-0.2,0-0.3,0-0.4-0.1c-0.1-0.1-0.1-0.2-0.1-0.3V92.9c0-0.1,0-0.3,0.1-0.3
									c0.1-0.1,0.2-0.1,0.4-0.1h1.1c0.1,0,0.3,0,0.3,0.1c0.1,0.1,0.1,0.2,0.1,0.3v13.8c0,0.1,0,0.3-0.1,0.3
									c-0.1,0.1-0.2,0.1-0.3,0.1H455.8z"/>
								<path class="st1" d="M468.5,107.3c-1.3,0-2.4-0.2-3.2-0.7c-0.9-0.5-1.5-1.1-1.9-2c-0.4-0.9-0.7-1.9-0.7-3c0-0.6,0-1.2,0-1.9
									c0-0.7,0-1.3,0-1.9c0-1.1,0.3-2.1,0.7-3c0.4-0.9,1.1-1.5,1.9-2c0.8-0.5,1.9-0.7,3.2-0.7c1,0,1.8,0.1,2.5,0.4
									c0.7,0.3,1.3,0.6,1.8,1.1c0.5,0.4,0.9,1,1.1,1.5c0.3,0.6,0.4,1.1,0.4,1.7c0,0.1,0,0.2-0.1,0.3c-0.1,0.1-0.2,0.1-0.3,0.1
									h-1.2c-0.1,0-0.2,0-0.3-0.1c-0.1-0.1-0.2-0.2-0.2-0.4c-0.2-1.1-0.7-1.8-1.3-2.3c-0.7-0.4-1.5-0.6-2.5-0.6
									c-1.1,0-2,0.3-2.7,1c-0.7,0.6-1,1.7-1.1,3.1c0,1.2,0,2.3,0,3.5c0.1,1.4,0.4,2.4,1.1,3.1c0.7,0.6,1.6,1,2.7,1
									c1,0,1.8-0.2,2.5-0.6c0.7-0.4,1.1-1.2,1.3-2.3c0-0.2,0.1-0.3,0.2-0.4c0.1-0.1,0.2-0.1,0.3-0.1h1.2c0.1,0,0.2,0,0.3,0.1
									c0.1,0.1,0.1,0.2,0.1,0.3c0,0.6-0.2,1.2-0.4,1.7c-0.3,0.6-0.6,1.1-1.1,1.5c-0.5,0.4-1.1,0.8-1.8,1.1
									C470.3,107.2,469.5,107.3,468.5,107.3z"/>
							</g>
						</g>
						<g>
							<path class="st1" d="M348.4,129.6c-0.2,0-0.3,0-0.4-0.1c-0.1-0.1-0.1-0.2-0.1-0.3v-13.8c0-0.2,0-0.3,0.1-0.4
								c0.1-0.1,0.2-0.1,0.4-0.1h8.7c0.2,0,0.3,0,0.4,0.1c0.1,0.1,0.1,0.2,0.1,0.4v0.8c0,0.2,0,0.3-0.1,0.4
								c-0.1,0.1-0.2,0.1-0.4,0.1h-7.2v4.6h6.7c0.2,0,0.3,0,0.4,0.1c0.1,0.1,0.1,0.2,0.1,0.4v0.8c0,0.1,0,0.3-0.1,0.3
								c-0.1,0.1-0.2,0.1-0.4,0.1h-6.7v4.8h7.3c0.2,0,0.3,0,0.4,0.1c0.1,0.1,0.1,0.2,0.1,0.4v0.8c0,0.1,0,0.3-0.1,0.3
								c-0.1,0.1-0.2,0.1-0.4,0.1H348.4z"/>
							<path class="st1" d="M363.3,129.6c-0.2,0-0.3,0-0.4-0.1c-0.1-0.1-0.1-0.2-0.1-0.3v-13.8c0-0.2,0-0.3,0.1-0.4
								c0.1-0.1,0.2-0.1,0.4-0.1h1c0.2,0,0.3,0,0.4,0.1c0.1,0.1,0.1,0.1,0.1,0.2l7,10.7v-10.5c0-0.2,0-0.3,0.1-0.4
								c0.1-0.1,0.2-0.1,0.4-0.1h1c0.2,0,0.3,0,0.4,0.1c0.1,0.1,0.1,0.2,0.1,0.4v13.7c0,0.1,0,0.3-0.1,0.4c-0.1,0.1-0.2,0.1-0.3,0.1
								h-1c-0.2,0-0.3,0-0.3-0.1c-0.1-0.1-0.1-0.1-0.2-0.2l-7-10.6v10.5c0,0.1,0,0.3-0.1,0.3c-0.1,0.1-0.2,0.1-0.4,0.1H363.3z"/>
							<path class="st1" d="M383.2,129.6c-0.1,0-0.3,0-0.3-0.1c-0.1-0.1-0.1-0.2-0.1-0.3v-12.4h-4c-0.1,0-0.3,0-0.3-0.1
								c-0.1-0.1-0.1-0.2-0.1-0.3v-0.9c0-0.2,0-0.3,0.1-0.4c0.1-0.1,0.2-0.1,0.3-0.1h10.2c0.2,0,0.3,0,0.4,0.1
								c0.1,0.1,0.1,0.2,0.1,0.4v0.9c0,0.1,0,0.3-0.1,0.3c-0.1,0.1-0.2,0.1-0.4,0.1h-4v12.4c0,0.1,0,0.3-0.1,0.3
								c-0.1,0.1-0.2,0.1-0.4,0.1H383.2z"/>
							<path class="st1" d="M394.3,129.6c-0.2,0-0.3,0-0.4-0.1c-0.1-0.1-0.1-0.2-0.1-0.3v-13.8c0-0.2,0-0.3,0.1-0.4
								c0.1-0.1,0.2-0.1,0.4-0.1h8.7c0.2,0,0.3,0,0.4,0.1c0.1,0.1,0.1,0.2,0.1,0.4v0.8c0,0.2,0,0.3-0.1,0.4
								c-0.1,0.1-0.2,0.1-0.4,0.1h-7.2v4.6h6.7c0.2,0,0.3,0,0.4,0.1c0.1,0.1,0.1,0.2,0.1,0.4v0.8c0,0.1,0,0.3-0.1,0.3
								c-0.1,0.1-0.2,0.1-0.4,0.1h-6.7v4.8h7.3c0.2,0,0.3,0,0.4,0.1c0.1,0.1,0.1,0.2,0.1,0.4v0.8c0,0.1,0,0.3-0.1,0.3
								c-0.1,0.1-0.2,0.1-0.4,0.1H394.3z"/>
							<path class="st1" d="M409.2,129.6c-0.2,0-0.3,0-0.4-0.1c-0.1-0.1-0.1-0.2-0.1-0.3v-13.8c0-0.2,0-0.3,0.1-0.4
								c0.1-0.1,0.2-0.1,0.4-0.1h5.1c1.6,0,2.8,0.4,3.8,1.1c0.9,0.7,1.4,1.8,1.4,3.3c0,1.1-0.3,2-0.8,2.6c-0.5,0.7-1.3,1.2-2.2,1.4
								l3.2,5.6c0,0.1,0.1,0.2,0.1,0.2c0,0.1,0,0.2-0.1,0.3c-0.1,0.1-0.2,0.1-0.3,0.1h-1c-0.2,0-0.4-0.1-0.5-0.2
								c-0.1-0.1-0.2-0.3-0.3-0.4l-3.1-5.4h-3.7v5.4c0,0.1,0,0.3-0.1,0.3c-0.1,0.1-0.2,0.1-0.4,0.1H409.2z M410.8,121.9h3.5
								c1.1,0,1.8-0.2,2.4-0.7c0.5-0.4,0.8-1.1,0.8-2c0-0.9-0.3-1.5-0.8-2c-0.5-0.4-1.3-0.7-2.4-0.7h-3.5V121.9z"/>
							<path class="st1" d="M425.1,129.6c-0.2,0-0.3,0-0.4-0.1c-0.1-0.1-0.1-0.2-0.1-0.3v-13.8c0-0.2,0-0.3,0.1-0.4
								c0.1-0.1,0.2-0.1,0.4-0.1h5.4c1,0,1.9,0.2,2.7,0.5c0.8,0.3,1.4,0.8,1.8,1.5c0.4,0.7,0.6,1.5,0.6,2.5c0,1-0.2,1.8-0.6,2.5
								c-0.4,0.7-1,1.2-1.8,1.5c-0.8,0.3-1.7,0.5-2.7,0.5h-3.7v5.3c0,0.1,0,0.3-0.1,0.3c-0.1,0.1-0.2,0.1-0.4,0.1H425.1z
								 M426.7,122.1h3.6c1,0,1.8-0.2,2.3-0.7c0.5-0.5,0.8-1.1,0.8-2c0-0.9-0.3-1.5-0.8-2c-0.5-0.5-1.3-0.7-2.4-0.7h-3.6V122.1z"/>
							<path class="st1" d="M440.8,129.6c-0.2,0-0.3,0-0.4-0.1c-0.1-0.1-0.1-0.2-0.1-0.3v-13.8c0-0.2,0-0.3,0.1-0.4
								c0.1-0.1,0.2-0.1,0.4-0.1h5.1c1.6,0,2.8,0.4,3.8,1.1c0.9,0.7,1.4,1.8,1.4,3.3c0,1.1-0.3,2-0.8,2.6c-0.5,0.7-1.3,1.2-2.2,1.4
								l3.2,5.6c0,0.1,0.1,0.2,0.1,0.2c0,0.1,0,0.2-0.1,0.3c-0.1,0.1-0.2,0.1-0.3,0.1h-1c-0.2,0-0.4-0.1-0.5-0.2
								c-0.1-0.1-0.2-0.3-0.3-0.4l-3.1-5.4h-3.7v5.4c0,0.1,0,0.3-0.1,0.3c-0.1,0.1-0.2,0.1-0.4,0.1H440.8z M442.3,121.9h3.5
								c1.1,0,1.8-0.2,2.4-0.7c0.5-0.4,0.8-1.1,0.8-2c0-0.9-0.3-1.5-0.8-2c-0.5-0.4-1.3-0.7-2.4-0.7h-3.5V121.9z"/>
							<path class="st1" d="M456.7,129.6c-0.2,0-0.3,0-0.4-0.1c-0.1-0.1-0.1-0.2-0.1-0.3v-13.8c0-0.1,0-0.3,0.1-0.3
								c0.1-0.1,0.2-0.1,0.4-0.1h1.1c0.1,0,0.3,0,0.3,0.1c0.1,0.1,0.1,0.2,0.1,0.3v13.8c0,0.1,0,0.3-0.1,0.3
								c-0.1,0.1-0.2,0.1-0.3,0.1H456.7z"/>
							<path class="st1" d="M468.8,129.8c-1.2,0-2.2-0.2-3.1-0.6c-0.8-0.4-1.5-0.9-1.9-1.5c-0.4-0.6-0.7-1.2-0.7-1.9
								c0-0.1,0-0.2,0.1-0.3c0.1-0.1,0.2-0.1,0.3-0.1h1.1c0.2,0,0.3,0,0.4,0.1c0.1,0.1,0.1,0.2,0.2,0.3c0.1,0.3,0.2,0.7,0.5,1
								c0.3,0.3,0.7,0.6,1.2,0.8c0.5,0.2,1.1,0.3,1.9,0.3c1.2,0,2.1-0.2,2.7-0.6c0.6-0.4,0.9-1,0.9-1.7c0-0.5-0.2-0.9-0.5-1.2
								c-0.3-0.3-0.8-0.6-1.4-0.8c-0.6-0.2-1.4-0.5-2.4-0.8c-1-0.3-1.9-0.6-2.5-1c-0.7-0.4-1.2-0.8-1.5-1.3c-0.3-0.5-0.5-1.2-0.5-2
								c0-0.8,0.2-1.4,0.6-2c0.4-0.6,1-1.1,1.8-1.4c0.8-0.4,1.7-0.5,2.8-0.5c0.9,0,1.6,0.1,2.3,0.3c0.7,0.2,1.2,0.5,1.6,0.9
								c0.4,0.4,0.8,0.8,1,1.2c0.2,0.4,0.3,0.9,0.4,1.3c0,0.1,0,0.2-0.1,0.3c-0.1,0.1-0.2,0.1-0.3,0.1h-1.1c-0.1,0-0.2,0-0.3-0.1
								c-0.1-0.1-0.2-0.2-0.2-0.3c-0.1-0.6-0.4-1.1-1-1.5c-0.6-0.4-1.3-0.6-2.2-0.6c-0.9,0-1.7,0.2-2.2,0.5
								c-0.6,0.4-0.9,0.9-0.9,1.6c0,0.5,0.1,0.9,0.4,1.2s0.7,0.6,1.3,0.8c0.6,0.2,1.3,0.5,2.3,0.8c1.1,0.3,2,0.6,2.8,1
								c0.7,0.3,1.2,0.8,1.6,1.3c0.3,0.5,0.5,1.2,0.5,2c0,0.9-0.2,1.6-0.7,2.3s-1.1,1.1-1.9,1.4
								C470.9,129.6,469.9,129.8,468.8,129.8z"/>
							<path class="st1" d="M479.7,129.6c-0.2,0-0.3,0-0.4-0.1c-0.1-0.1-0.1-0.2-0.1-0.3v-13.8c0-0.2,0-0.3,0.1-0.4
								c0.1-0.1,0.2-0.1,0.4-0.1h8.7c0.2,0,0.3,0,0.4,0.1c0.1,0.1,0.1,0.2,0.1,0.4v0.8c0,0.2,0,0.3-0.1,0.4
								c-0.1,0.1-0.2,0.1-0.4,0.1h-7.2v4.6h6.7c0.2,0,0.3,0,0.4,0.1c0.1,0.1,0.1,0.2,0.1,0.4v0.8c0,0.1,0,0.3-0.1,0.3
								c-0.1,0.1-0.2,0.1-0.4,0.1h-6.7v4.8h7.3c0.2,0,0.3,0,0.4,0.1c0.1,0.1,0.1,0.2,0.1,0.4v0.8c0,0.1,0,0.3-0.1,0.3
								c-0.1,0.1-0.2,0.1-0.4,0.1H479.7z"/>
							<path class="st1" d="M498.9,129.8c-1.2,0-2.2-0.2-3.1-0.6c-0.8-0.4-1.5-0.9-1.9-1.5c-0.4-0.6-0.7-1.2-0.7-1.9
								c0-0.1,0-0.2,0.1-0.3c0.1-0.1,0.2-0.1,0.3-0.1h1.1c0.2,0,0.3,0,0.4,0.1c0.1,0.1,0.1,0.2,0.2,0.3c0.1,0.3,0.2,0.7,0.5,1
								c0.3,0.3,0.7,0.6,1.2,0.8c0.5,0.2,1.1,0.3,1.9,0.3c1.2,0,2.1-0.2,2.7-0.6c0.6-0.4,0.9-1,0.9-1.7c0-0.5-0.2-0.9-0.5-1.2
								c-0.3-0.3-0.8-0.6-1.4-0.8c-0.6-0.2-1.4-0.5-2.4-0.8c-1-0.3-1.9-0.6-2.5-1c-0.7-0.4-1.2-0.8-1.5-1.3c-0.3-0.5-0.5-1.2-0.5-2
								c0-0.8,0.2-1.4,0.6-2c0.4-0.6,1-1.1,1.8-1.4c0.8-0.4,1.7-0.5,2.8-0.5c0.9,0,1.6,0.1,2.3,0.3c0.7,0.2,1.2,0.5,1.6,0.9
								c0.4,0.4,0.8,0.8,1,1.2c0.2,0.4,0.3,0.9,0.4,1.3c0,0.1,0,0.2-0.1,0.3c-0.1,0.1-0.2,0.1-0.3,0.1h-1.1c-0.1,0-0.2,0-0.3-0.1
								c-0.1-0.1-0.2-0.2-0.2-0.3c-0.1-0.6-0.4-1.1-1-1.5c-0.6-0.4-1.3-0.6-2.2-0.6c-0.9,0-1.7,0.2-2.2,0.5
								c-0.6,0.4-0.9,0.9-0.9,1.6c0,0.5,0.1,0.9,0.4,1.2s0.7,0.6,1.3,0.8c0.6,0.2,1.3,0.5,2.3,0.8c1.1,0.3,2,0.6,2.8,1
								c0.7,0.3,1.2,0.8,1.6,1.3c0.3,0.5,0.5,1.2,0.5,2c0,0.9-0.2,1.6-0.7,2.3s-1.1,1.1-1.9,1.4C501,129.6,500,129.8,498.9,129.8z"
								/>
						</g>
					</g>
				</g>
			</g>
			<path class="st1" d="M56.9,161.7l12.9-25.9c0-0.1,0.1-0.1,0.2-0.1l44.3-5.5c0.3,0,0.3-0.5,0-0.5H57c-0.2,0-0.3-0.2-0.2-0.4
				l32.5-56.8c0-0.1,0.1-0.1,0.2-0.1l40.2-8c0.2,0,0.4,0.2,0.3,0.4L110,96.5c-0.1,0.1-0.3,0.2-0.4,0L92.6,77c-0.2-0.2-0.6,0-0.4,0.3
				l29.8,52.1c0.1,0.1,0,0.3-0.1,0.4L57.3,162C57.1,162.1,56.8,161.9,56.9,161.7z"/>
		</g>
	</g>
</g>
</svg>
