<?xml version="1.0" encoding="UTF-8"?>
<svg xmlns="http://www.w3.org/2000/svg" xmlns:xlink="http://www.w3.org/1999/xlink" viewBox="0 0 305.02 202.14">
  <defs>
    <style>
      .cls-1 {
        fill: url(#linear-gradient-2);
      }

      .cls-2 {
        fill: url(#linear-gradient-17);
      }

      .cls-3 {
        fill: url(#linear-gradient-15);
      }

      .cls-4 {
        fill: url(#linear-gradient-18);
      }

      .cls-5 {
        fill: url(#linear-gradient-28);
      }

      .cls-6 {
        fill: url(#linear-gradient-14);
      }

      .cls-7 {
        fill: url(#linear-gradient-20);
      }

      .cls-8 {
        fill: url(#linear-gradient-6);
      }

      .cls-9 {
        fill: url(#linear-gradient-32);
      }

      .cls-10 {
        fill: url(#linear-gradient-11);
      }

      .cls-11 {
        fill: url(#linear-gradient-10);
      }

      .cls-12 {
        fill: url(#linear-gradient-16);
      }

      .cls-13 {
        fill: url(#linear-gradient-31);
      }

      .cls-14 {
        fill: none;
        opacity: .32;
      }

      .cls-15 {
        fill: url(#linear-gradient-21);
      }

      .cls-16 {
        fill: url(#linear-gradient-25);
      }

      .cls-17 {
        fill: url(#linear-gradient-5);
      }

      .cls-18 {
        fill: url(#linear-gradient-7);
      }

      .cls-19 {
        fill: url(#linear-gradient-24);
      }

      .cls-20 {
        fill: url(#linear-gradient-9);
      }

      .cls-21 {
        fill: url(#linear-gradient-22);
      }

      .cls-22 {
        fill: url(#linear-gradient-3);
      }

      .cls-23 {
        fill: url(#linear-gradient);
      }

      .cls-24 {
        fill: url(#linear-gradient-27);
      }

      .cls-25 {
        fill: url(#linear-gradient-29);
      }

      .cls-26 {
        fill: url(#linear-gradient-30);
      }

      .cls-27 {
        fill: url(#linear-gradient-23);
      }

      .cls-28 {
        fill: url(#linear-gradient-19);
      }

      .cls-29 {
        fill: #231f20;
      }

      .cls-30 {
        fill: url(#linear-gradient-4);
      }

      .cls-31 {
        fill: url(#linear-gradient-8);
      }

      .cls-32 {
        fill: url(#linear-gradient-12);
      }

      .cls-33 {
        fill: url(#linear-gradient-13);
      }

      .cls-34 {
        fill: url(#linear-gradient-26);
      }
    </style>
    <linearGradient id="linear-gradient" x1="124.25" y1="156.53" x2="90.34" y2="125.77" gradientUnits="userSpaceOnUse">
      <stop offset="0" stop-color="#fff"/>
      <stop offset="1" stop-color="#808285"/>
    </linearGradient>
    <linearGradient id="linear-gradient-2" x1="79.84" y1="93.12" x2="79.71" y2="59.42" gradientTransform="translate(11.52 49.03) rotate(-10.67)" gradientUnits="userSpaceOnUse">
      <stop offset="0" stop-color="#a7a9ac"/>
      <stop offset=".32" stop-color="#808285"/>
      <stop offset=".65" stop-color="#7e8083"/>
      <stop offset=".77" stop-color="#77797c"/>
      <stop offset=".86" stop-color="#6c6d70"/>
      <stop offset=".92" stop-color="#5c5d5f"/>
      <stop offset=".98" stop-color="#484749"/>
      <stop offset="1" stop-color="#414042"/>
    </linearGradient>
    <linearGradient id="linear-gradient-3" x1="79.79" y1="72.98" x2="76.48" y2="120.91" gradientTransform="translate(11.52 49.03) rotate(-10.67)" xlink:href="#linear-gradient"/>
    <linearGradient id="linear-gradient-4" x1="114.72" y1="71.56" x2="90.87" y2="91.66" gradientTransform="translate(11.52 49.03) rotate(-10.67)" xlink:href="#linear-gradient"/>
    <linearGradient id="linear-gradient-5" x1="92.85" y1="112.8" x2="92.73" y2="80.95" gradientTransform="translate(11.52 49.03) rotate(-10.67)" gradientUnits="userSpaceOnUse">
      <stop offset="0" stop-color="#a7a9ac"/>
      <stop offset=".58" stop-color="#808285"/>
      <stop offset=".79" stop-color="#7e8083"/>
      <stop offset=".86" stop-color="#77797c"/>
      <stop offset=".91" stop-color="#6c6d70"/>
      <stop offset=".95" stop-color="#5c5d5f"/>
      <stop offset=".99" stop-color="#484749"/>
      <stop offset="1" stop-color="#414042"/>
    </linearGradient>
    <linearGradient id="linear-gradient-6" x1="143.2" y1="128.83" x2="115.24" y2="93.17" xlink:href="#linear-gradient"/>
    <linearGradient id="linear-gradient-7" x1="105.58" y1="75.25" x2="105.5" y2="54.61" gradientTransform="translate(11.52 49.03) rotate(-10.67)" gradientUnits="userSpaceOnUse">
      <stop offset="0" stop-color="#939598"/>
      <stop offset="1" stop-color="#fff"/>
    </linearGradient>
    <linearGradient id="linear-gradient-8" x1="97.4" y1="8.96" x2="100.74" y2="60.01" gradientTransform="translate(11.52 49.03) rotate(-10.67)" xlink:href="#linear-gradient"/>
    <linearGradient id="linear-gradient-9" x1="130.02" y1="28.23" x2="71.21" y2="33.63" xlink:href="#linear-gradient-7"/>
    <linearGradient id="linear-gradient-10" x1="92.23" y1="70.3" x2="92.08" y2="30.5" gradientTransform="translate(11.52 49.03) rotate(-10.67)" gradientUnits="userSpaceOnUse">
      <stop offset="0" stop-color="#fff"/>
      <stop offset=".19" stop-color="#e1e2e3"/>
      <stop offset=".56" stop-color="#adaeb0"/>
      <stop offset=".85" stop-color="#8c8e90"/>
      <stop offset="1" stop-color="#808285"/>
    </linearGradient>
    <linearGradient id="linear-gradient-11" x1="111.35" y1="83.31" x2="82.34" y2="50.8" xlink:href="#linear-gradient"/>
    <linearGradient id="linear-gradient-12" x1="15867.75" y1="113.17" x2="15867.66" y2="90.45" gradientTransform="translate(15656.54 -2898.39) rotate(169.33) scale(1 -1)" gradientUnits="userSpaceOnUse">
      <stop offset="0" stop-color="#d1d3d4"/>
      <stop offset=".32" stop-color="#808285"/>
      <stop offset="1" stop-color="#414042"/>
    </linearGradient>
    <linearGradient id="linear-gradient-13" x1="89.18" y1="137.22" x2="49.34" y2="98.07" gradientTransform="matrix(1,0,0,1,0,0)" xlink:href="#linear-gradient-12"/>
    <linearGradient id="linear-gradient-14" x1="41.29" y1="140.96" x2="55.65" y2="76.33" gradientTransform="translate(11.52 49.03) rotate(-10.67)" xlink:href="#linear-gradient"/>
    <linearGradient id="linear-gradient-15" x1="46.57" y1="70.35" x2="55.3" y2="144.8" xlink:href="#linear-gradient"/>
    <linearGradient id="linear-gradient-16" x1="35.06" y1="119.02" x2="42.43" y2="64.77" xlink:href="#linear-gradient-7"/>
    <linearGradient id="linear-gradient-17" x1="49.25" y1="133.65" x2="61.48" y2="100.1" xlink:href="#linear-gradient"/>
    <linearGradient id="linear-gradient-18" x1="15895.69" y1="77.98" x2="15895.57" y2="48.79" xlink:href="#linear-gradient-12"/>
    <linearGradient id="linear-gradient-19" x1="15890.13" y1="71.48" x2="15889.97" y2="31.67" xlink:href="#linear-gradient-12"/>
    <linearGradient id="linear-gradient-20" x1="15925.52" y1="27.74" x2="15866.71" y2="33.13" gradientTransform="translate(15656.54 -2898.39) rotate(169.33) scale(1 -1)" gradientUnits="userSpaceOnUse">
      <stop offset="0" stop-color="#fff"/>
      <stop offset="1" stop-color="#58595b"/>
    </linearGradient>
    <linearGradient id="linear-gradient-21" x1="14" y1="61.97" x2="51.34" y2="29.29" gradientTransform="translate(11.52 49.03) rotate(-10.67)" xlink:href="#linear-gradient"/>
    <linearGradient id="linear-gradient-22" x1="62.3" y1="85.39" x2="74.88" y2="47.82" gradientUnits="userSpaceOnUse">
      <stop offset="0" stop-color="#e6e7e8"/>
      <stop offset="1" stop-color="#bcbec0"/>
    </linearGradient>
    <linearGradient id="linear-gradient-23" x1="75.04" y1="31.47" x2="40.26" y2="34.66" gradientTransform="translate(11.52 49.03) rotate(-10.67)" gradientUnits="userSpaceOnUse">
      <stop offset="0" stop-color="#a7a9ac"/>
      <stop offset="1" stop-color="#414042"/>
    </linearGradient>
    <linearGradient id="linear-gradient-24" x1="62.65" y1="4.04" x2="74.62" y2="57.08" gradientTransform="translate(11.52 49.03) rotate(-10.67)" gradientUnits="userSpaceOnUse">
      <stop offset="0" stop-color="#fff"/>
      <stop offset=".14" stop-color="#f4f4f5"/>
      <stop offset=".38" stop-color="#d8d9da"/>
      <stop offset=".69" stop-color="#abadaf"/>
      <stop offset=".84" stop-color="#939598"/>
    </linearGradient>
    <linearGradient id="linear-gradient-25" x1="71.71" y1="51.31" x2="28.33" y2="55.29" xlink:href="#linear-gradient-7"/>
    <linearGradient id="linear-gradient-26" x1="82.07" y1="99.67" x2="34.97" y2="59.78" gradientTransform="translate(11.52 49.03) rotate(-10.67)" xlink:href="#linear-gradient"/>
    <linearGradient id="linear-gradient-27" x1="109.5" y1="52.63" x2="66.13" y2="56.61" gradientTransform="translate(190.65 15.28) rotate(169.33) scale(1 -1)" gradientUnits="userSpaceOnUse">
      <stop offset="0" stop-color="#fff"/>
      <stop offset=".7" stop-color="#808285"/>
    </linearGradient>
    <linearGradient id="linear-gradient-28" x1="120.31" y1="87.9" x2="73.21" y2="48.01" gradientTransform="translate(190.65 15.28) rotate(169.33) scale(1 -1)" gradientUnits="userSpaceOnUse">
      <stop offset="0" stop-color="#fff"/>
      <stop offset=".73" stop-color="#808285"/>
    </linearGradient>
    <linearGradient id="linear-gradient-29" x1="57.88" y1="57.24" x2="82" y2="97.08" gradientUnits="userSpaceOnUse">
      <stop offset="0" stop-color="#fff"/>
      <stop offset=".14" stop-color="#f4f4f5"/>
      <stop offset=".37" stop-color="#d8d9da"/>
      <stop offset=".67" stop-color="#abadaf"/>
      <stop offset=".82" stop-color="#939598"/>
    </linearGradient>
    <linearGradient id="linear-gradient-30" x1="103.08" y1="111.29" x2="74.42" y2="107.33" gradientUnits="userSpaceOnUse">
      <stop offset="0" stop-color="#d1d3d4"/>
      <stop offset="1" stop-color="#414042"/>
    </linearGradient>
    <linearGradient id="linear-gradient-31" x1="90.49" y1="66.28" x2="91.19" y2="97.04" xlink:href="#linear-gradient-22"/>
    <linearGradient id="linear-gradient-32" x1="87.47" y1="139.1" x2="90.96" y2="98.21" gradientUnits="userSpaceOnUse">
      <stop offset="0" stop-color="#fff"/>
      <stop offset=".02" stop-color="#fbfbfb"/>
      <stop offset=".22" stop-color="#d6d6d8"/>
      <stop offset=".42" stop-color="#b8babc"/>
      <stop offset=".62" stop-color="#a3a5a8"/>
      <stop offset=".81" stop-color="#97999c"/>
      <stop offset="1" stop-color="#939598"/>
    </linearGradient>
  </defs>
  <g id="fundo">
    <rect class="cls-14" x="-23.23" y="-232.46" width="561.26" height="255.12"/>
  </g>
  <g id="icon_MTG" data-name="icon + MTG">
    <g>
      <g>
        <path class="cls-29" d="m185.04,70.7h6.38c.56,0,.84.28.84.84v57.1c0,.56-.28.84-.84.84h-6.38c-.56,0-.84-.28-.84-.84v-41.65c0-.17-.04-.25-.13-.25s-.18.06-.29.17l-8.06,15.03c-.17.39-.42.59-.76.59s-.59-.2-.76-.59l-7.98-14.95c-.11-.11-.21-.17-.29-.17s-.13.08-.13.25v41.57c0,.56-.28.84-.84.84h-6.38c-.56,0-.84-.28-.84-.84v-57.1c0-.56.28-.84.84-.84h6.38c.39,0,.73.2,1.01.59l8.82,15.79c.05.06.14.08.25.08s.2-.03.25-.08l8.73-15.79c.22-.39.56-.59,1.01-.59Z"/>
        <path class="cls-29" d="m231.57,71.54v5.29c0,.56-.28.84-.84.84h-11c-.22,0-.34.11-.34.34v50.64c0,.56-.28.84-.84.84h-6.38c-.56,0-.84-.28-.84-.84v-50.64c0-.13-.04-.23-.12-.28-.05-.04-.13-.06-.22-.06h-10.41c-.56,0-.84-.28-.84-.84v-5.29c0-.56.28-.84.84-.84h30.15c.56,0,.84.28.84.84Z"/>
        <path class="cls-29" d="m250.54,105.97v-6.05c0-.56.28-.84.84-.84h14.78l-15.62,6.89Zm15.62-6.89v16.37c0,4.42-1.4,7.98-4.2,10.67-2.8,2.69-6.47,4.03-11,4.03s-8.19-1.34-10.96-4.03c-2.77-2.69-4.16-6.24-4.16-10.67v-30.73c0-4.42,1.39-7.98,4.16-10.66,2.77-2.69,6.42-4.03,10.96-4.03s8.2,1.34,11,4.03c2.8,2.69,4.2,6.27,4.2,10.75v3.53c0,.56-.28.84-.84.84h-6.38c-.56,0-.84-.28-.84-.84v-3.7c0-2.3-.66-4.14-1.97-5.54-1.32-1.4-3.04-2.1-5.16-2.1s-3.85.7-5.17,2.1c-1.31,1.4-1.97,3.25-1.97,5.54v30.9c0,2.3.66,4.14,1.97,5.54,1.32,1.4,3.04,2.1,5.17,2.1s3.85-.7,5.16-2.1c1.31-1.4,1.97-3.25,1.97-5.54v-7.24l8.06-9.22Z"/>
      </g>
      <g>
        <g>
          <polygon class="cls-23" points="121.26 144.26 92.93 129.69 94.75 139.33 121.26 144.26"/>
          <polygon class="cls-1" points="116.44 95.45 116.08 117.18 92.93 129.69 116.44 95.45"/>
          <polygon class="cls-22" points="121.26 144.26 116.08 117.18 92.93 129.69 121.26 144.26"/>
          <polygon class="cls-30" points="140.19 102.04 122.11 120.66 116.08 117.18 140.19 102.04"/>
          <polygon class="cls-17" points="121.26 144.26 122.11 120.66 116.08 117.18 121.26 144.26"/>
          <polygon class="cls-8" points="116.44 95.45 116.08 117.18 140.19 102.04 116.44 95.45"/>
          <polygon class="cls-18" points="122.87 87.18 116.44 95.45 140.19 102.04 122.87 87.18"/>
          <polygon class="cls-31" points="120.73 59.54 122.87 87.18 116.44 95.45 120.73 59.54"/>
          <polygon class="cls-20" points="96.71 61.69 120.73 59.54 95.89 71.21 96.71 61.69"/>
          <polygon class="cls-11" points="116.44 95.45 120.73 59.54 95.89 71.21 116.44 95.45"/>
          <polygon class="cls-10" points="96.71 61.69 77.65 48.57 95.89 71.21 96.71 61.69"/>
        </g>
        <g>
          <polygon class="cls-32" points="71.84 153.57 92.93 129.69 94.75 139.33 71.84 153.57"/>
          <polygon class="cls-33" points="58.58 106.35 66.82 126.46 92.93 129.69 58.58 106.35"/>
          <polygon class="cls-6" points="71.84 153.57 66.82 126.46 92.93 129.69 71.84 153.57"/>
          <polygon class="cls-3" points="38.86 121.13 62.47 131.89 66.82 126.46 38.86 121.13"/>
          <polygon class="cls-12" points="71.84 153.57 62.47 131.89 66.82 126.46 71.84 153.57"/>
          <polygon class="cls-2" points="58.58 106.35 66.82 126.46 38.86 121.13 58.58 106.35"/>
          <polygon class="cls-4" points="49.58 100.98 58.58 106.35 38.86 121.13 49.58 100.98"/>
          <polygon class="cls-28" points="41.51 74.47 49.58 100.98 58.58 106.35 41.51 74.47"/>
          <polygon class="cls-7" points="64.67 67.72 41.51 74.47 68.89 76.3 64.67 67.72"/>
          <polygon class="cls-15" points="58.58 106.35 41.51 74.47 68.89 76.3 58.58 106.35"/>
          <polygon class="cls-21" points="64.67 67.72 77.65 48.57 68.89 76.3 64.67 67.72"/>
        </g>
        <polygon class="cls-27" points="77.65 48.57 68.89 76.3 85.27 89.04 77.65 48.57"/>
        <polygon class="cls-19" points="95.89 71.21 85.27 89.04 77.65 48.57 95.89 71.21"/>
        <polygon class="cls-16" points="68.89 76.3 58.58 106.35 79.25 105.99 68.89 76.3"/>
        <polygon class="cls-34" points="92.93 129.69 79.25 105.99 58.58 106.35 92.93 129.69"/>
        <polygon class="cls-24" points="95.89 71.21 116.44 95.45 97.05 102.64 95.89 71.21"/>
        <polygon class="cls-5" points="92.93 129.69 97.05 102.64 116.44 95.45 92.93 129.69"/>
        <polygon class="cls-25" points="68.89 76.3 85.27 89.04 79.25 105.99 68.89 76.3"/>
        <polygon class="cls-26" points="92.93 129.69 85.27 89.04 79.25 105.99 92.93 129.69"/>
        <polygon class="cls-13" points="95.89 71.21 85.27 89.04 97.05 102.64 95.89 71.21"/>
        <polygon class="cls-9" points="92.93 129.69 85.27 89.04 97.05 102.64 92.93 129.69"/>
      </g>
    </g>
  </g>
</svg>