<?xml version="1.0" encoding="UTF-8"?>
<svg xmlns="http://www.w3.org/2000/svg" viewBox="0 0 305.02 202.14">
  <defs>
    <style>
      .cls-1 {
        fill: none;
        opacity: .32;
      }

      .cls-2 {
        fill: #231f20;
      }
    </style>
  </defs>
  <g id="fundo">
    <rect class="cls-1" x="-26.72" y="-232.46" width="561.26" height="255.12"/>
  </g>
  <g id="icon_MTG" data-name="icon + MTG">
    <g>
      <g>
        <path class="cls-2" d="m185.04,70.7h6.38c.56,0,.84.28.84.84v57.1c0,.56-.28.84-.84.84h-6.38c-.56,0-.84-.28-.84-.84v-41.65c0-.17-.04-.25-.13-.25s-.18.06-.29.17l-8.06,15.03c-.17.39-.42.59-.76.59s-.59-.2-.76-.59l-7.98-14.95c-.11-.11-.21-.17-.29-.17s-.13.08-.13.25v41.57c0,.56-.28.84-.84.84h-6.38c-.56,0-.84-.28-.84-.84v-57.1c0-.56.28-.84.84-.84h6.38c.39,0,.73.2,1.01.59l8.82,15.79c.05.06.14.08.25.08s.2-.03.25-.08l8.73-15.79c.22-.39.56-.59,1.01-.59Z"/>
        <path class="cls-2" d="m231.57,71.54v5.29c0,.56-.28.84-.84.84h-11c-.22,0-.34.11-.34.34v50.64c0,.56-.28.84-.84.84h-6.38c-.56,0-.84-.28-.84-.84v-50.64c0-.13-.04-.23-.12-.28-.05-.04-.13-.06-.22-.06h-10.41c-.56,0-.84-.28-.84-.84v-5.29c0-.56.28-.84.84-.84h30.15c.56,0,.84.28.84.84Z"/>
        <path class="cls-2" d="m250.54,105.97v-6.05c0-.56.28-.84.84-.84h14.78l-15.62,6.89Zm15.62-6.89v16.37c0,4.42-1.4,7.98-4.2,10.67-2.8,2.69-6.47,4.03-11,4.03s-8.19-1.34-10.96-4.03c-2.77-2.69-4.16-6.24-4.16-10.67v-30.73c0-4.42,1.39-7.98,4.16-10.66,2.77-2.69,6.42-4.03,10.96-4.03s8.2,1.34,11,4.03c2.8,2.69,4.2,6.27,4.2,10.75v3.53c0,.56-.28.84-.84.84h-6.38c-.56,0-.84-.28-.84-.84v-3.7c0-2.3-.66-4.14-1.97-5.54-1.32-1.4-3.04-2.1-5.16-2.1s-3.85.7-5.17,2.1c-1.31,1.4-1.97,3.25-1.97,5.54v30.9c0,2.3.66,4.14,1.97,5.54,1.32,1.4,3.04,2.1,5.17,2.1s3.85-.7,5.16-2.1c1.31-1.4,1.97-3.25,1.97-5.54v-7.24l8.06-9.22Z"/>
      </g>
      <path class="cls-2" d="m123.58,86.86l-2.17-28.08-24.5,2.18-19.46-13.38-13.27,19.55-23.61,6.88,8.19,26.95-10.94,20.57,24.06,10.97,9.61,22.21,23.39-14.54,27.1,5.03.86-24.18,18.43-18.98-17.69-15.18Zm-2.24,34.28l-.6,16.5-3.62-18.94,4.22,2.43h0Zm-53.6,6.24l23.68,2.92-19.13,21.66-4.55-24.58Zm-24.93-52.03l25.05,1.68-9.44,27.5-15.61-29.18Zm77.01-14.5l-3.93,32.85-18.8-22.18,22.73-10.67Zm-59.6,47.57l29.7,20.19-22.58-2.79-7.12-17.4Zm32.63,16.84l-6.33-33.57,9.73,11.23-3.4,22.34Zm2.38-51.42l.99,26.75-10.03-11.58h0s9.04-15.17,9.04-15.17Zm-10.19,18.11l6.33,33.59-11.3-19.57,4.97-14.02Zm-6.23,14.85l11.82,20.47-29.68-20.16,17.86-.31Zm35.66-9.77l-20.31,29.58,3.56-23.37,16.75-6.21Zm-16.71,4.59l-1.04-28.21,18.45,21.76-17.41,6.45Zm-13.38-12.28l-5.13,14.44-8.82-25.28,13.95,10.84Zm-15.49-10.7l9.3,26.67-18.56.32,9.26-26.99Zm26.41,48.96l20.34-29.61-.31,18.79-20.03,10.82Zm-.34-56.26l-9.32,15.65-6.7-35.56,16.02,19.91Zm-25.19,4.73l7.69-24.37,6.7,35.57-14.39-11.2Zm-29.1,44.69l17.57-13.18,7.36,17.93-24.93-4.75Zm79.56,22.17l-25.7-13.21,21-11.34,4.7,24.55Zm18.11-40.57l-21.5,13.5.33-19.37,21.17,5.87Zm-20.62-7.28l5.25-6.77,14.16,12.15-19.41-5.38Zm4.37-8.09l-4.59,5.91,3.07-25.65,1.52,19.74Zm-24.69-24.56l19.16-1.71-19.81,9.31.65-7.6Zm-1.48-.32l-.62,7.22-13.85-17.18,14.47,9.96Zm-20.54-8.82l-6.65,21.05-3.21-6.51,9.86-14.54Zm-11.12,15.38l3.38,6.84-21.86-1.46,18.48-5.38Zm-19.81,12.94l12.18,22.75-6.43-3.83-5.75-18.92Zm5.41,20.47l7.37,4.39-16.14,12.09,8.77-16.48Zm15.57,24.94l-3.2,4-17.36-7.93,20.56,3.93Zm-2.1,5.04l3.05-3.8,3.51,18.97-6.56-15.17Zm30.58,6.95l-18.12,11.26,16.68-18.89,1.44,7.63Zm22.43,3.61l-20.96-3.89-1.43-7.63,22.39,11.52Zm5.63-22.86l-4.44-2.56,17.74-11.14-13.3,13.7Z"/>
    </g>
  </g>
</svg>