<?xml version="1.0" encoding="UTF-8"?>
<svg id="icon_MTG" data-name="icon + MTG" xmlns="http://www.w3.org/2000/svg" viewBox="0 0 490.46 240.31">
  <defs>
    <style>
      .cls-1 {
        fill: #fff;
      }
    </style>
  </defs>
  <g>
    <path class="cls-1" d="m318.84,105.35l-1.83-5.93s-.04-.06-.08-.06h-1.39c-.05,0-.08.03-.08.08v5.87c0,.13-.07.2-.2.2h-1.51c-.13,0-.2-.07-.2-.2v-13.53c0-.13.07-.2.2-.2h3.56c.68,0,1.27.17,1.79.5.52.33.92.8,1.2,1.4s.43,1.29.43,2.06c0,.84-.17,1.56-.52,2.18-.34.62-.82,1.06-1.41,1.34-.04.04-.05.08-.04.12l2.03,6.11.02.08c0,.09-.06.14-.18.14h-1.55c-.12,0-.2-.05-.24-.16Zm-3.38-12.04v4.46c0,.05.03.08.08.08h1.47c.54,0,.98-.21,1.31-.63.33-.42.5-.97.5-1.66s-.17-1.28-.5-1.7c-.33-.42-.77-.63-1.31-.63h-1.47c-.05,0-.08.03-.08.08Z"/>
    <path class="cls-1" d="m330.02,93.23h-4.48c-.05,0-.08.03-.08.08v4.32c0,.05.03.08.08.08h2.75c.13,0,.2.07.2.2v1.25c0,.13-.07.2-.2.2h-2.75c-.05,0-.08.03-.08.08v4.34c0,.05.03.08.08.08h4.48c.13,0,.2.07.2.2v1.25c0,.13-.07.2-.2.2h-6.27c-.13,0-.2-.07-.2-.2v-13.53c0-.13.07-.2.2-.2h6.27c.13,0,.2.07.2.2v1.25c0,.13-.07.2-.2.2Z"/>
    <path class="cls-1" d="m333.63,104.68c-.64-.66-.96-1.51-.96-2.58v-.52c0-.13.07-.2.2-.2h1.47c.13,0,.2.07.2.2v.42c0,.61.15,1.1.46,1.46.31.36.7.55,1.17.55s.87-.18,1.18-.53.47-.81.47-1.38c0-.38-.08-.72-.25-1.01-.17-.29-.38-.55-.66-.79s-.71-.57-1.32-1.02c-.68-.5-1.21-.94-1.59-1.29-.38-.36-.71-.79-.97-1.29-.27-.5-.4-1.09-.4-1.77,0-1.07.32-1.93.96-2.56s1.47-.95,2.49-.95,1.91.34,2.56,1.01c.64.68.96,1.57.96,2.67v.5c0,.13-.07.2-.2.2h-1.47c-.13,0-.2-.07-.2-.2v-.54c0-.6-.15-1.08-.46-1.44-.31-.36-.7-.55-1.19-.55-.46,0-.84.16-1.13.49-.29.33-.44.78-.44,1.36,0,.53.15.98.44,1.34.29.36.86.85,1.69,1.46.8.6,1.4,1.08,1.8,1.45s.72.78.94,1.22.33.97.33,1.58c0,1.11-.33,2.01-.97,2.68-.65.67-1.5,1-2.55,1s-1.89-.33-2.54-.99Z"/>
    <path class="cls-1" d="m348.96,93.23h-4.48c-.05,0-.08.03-.08.08v4.32c0,.05.03.08.08.08h2.75c.13,0,.2.07.2.2v1.25c0,.13-.07.2-.2.2h-2.75c-.05,0-.08.03-.08.08v4.34c0,.05.03.08.08.08h4.48c.13,0,.2.07.2.2v1.25c0,.13-.07.2-.2.2h-6.27c-.13,0-.2-.07-.2-.2v-13.53c0-.13.07-.2.2-.2h6.27c.13,0,.2.07.2.2v1.25c0,.13-.07.2-.2.2Z"/>
    <path class="cls-1" d="m357.73,105.33l-.44-2.29s0-.05-.03-.06c-.02-.01-.04-.02-.07-.02h-3.24s-.05,0-.07.02c-.02.01-.03.03-.03.06l-.42,2.29c-.01.12-.09.18-.22.18h-1.51c-.07,0-.12-.02-.15-.06-.03-.04-.04-.09-.03-.16l2.96-13.53c.03-.12.1-.18.22-.18h1.77c.13,0,.21.06.22.18l2.98,13.53v.04c0,.12-.06.18-.18.18h-1.55c-.12,0-.19-.06-.22-.18Zm-3.48-3.88h2.65s.06-.03.06-.08l-1.35-7.06s-.03-.04-.04-.04c-.01,0-.03.01-.04.04l-1.33,7.06c0,.05.02.08.06.08Z"/>
    <path class="cls-1" d="m367.46,105.35l-1.83-5.93s-.04-.06-.08-.06h-1.39c-.05,0-.08.03-.08.08v5.87c0,.13-.07.2-.2.2h-1.51c-.13,0-.2-.07-.2-.2v-13.53c0-.13.07-.2.2-.2h3.56c.68,0,1.27.17,1.79.5.52.33.92.8,1.2,1.4s.43,1.29.43,2.06c0,.84-.17,1.56-.52,2.18-.34.62-.82,1.06-1.41,1.34-.04.04-.05.08-.04.12l2.03,6.11.02.08c0,.09-.06.14-.18.14h-1.55c-.12,0-.2-.05-.24-.16Zm-3.38-12.04v4.46c0,.05.03.08.08.08h1.47c.54,0,.98-.21,1.31-.63.33-.42.5-.97.5-1.66s-.17-1.28-.5-1.7c-.33-.42-.77-.63-1.31-.63h-1.47c-.05,0-.08.03-.08.08Z"/>
    <path class="cls-1" d="m372.88,104.68c-.66-.66-.98-1.53-.98-2.62v-7.06c0-1.09.33-1.96.98-2.61.66-.65,1.52-.98,2.6-.98s1.96.33,2.62.98c.66.65.99,1.52.99,2.61v.32c0,.13-.07.2-.2.2l-1.51.08c-.13,0-.2-.07-.2-.2v-.52c0-.54-.16-.98-.47-1.31-.31-.33-.72-.5-1.22-.5s-.91.17-1.21.5c-.31.33-.46.77-.46,1.31v7.32c0,.54.15.98.46,1.31.3.33.71.5,1.21.5s.91-.17,1.22-.5c.31-.33.47-.77.47-1.31v-.52c0-.13.07-.2.2-.2l1.51.08c.13,0,.2.07.2.2v.3c0,1.09-.33,1.96-.99,2.62-.66.66-1.53.99-2.62.99s-1.94-.33-2.6-.99Z"/>
    <path class="cls-1" d="m387.43,91.58h1.51c.13,0,.2.07.2.2v13.53c0,.13-.07.2-.2.2h-1.51c-.13,0-.2-.07-.2-.2v-5.87c0-.05-.03-.08-.08-.08h-3c-.05,0-.08.03-.08.08v5.87c0,.13-.07.2-.2.2h-1.51c-.13,0-.2-.07-.2-.2v-13.53c0-.13.07-.2.2-.2h1.51c.13,0,.2.07.2.2v5.85c0,.05.03.08.08.08h3c.05,0,.08-.03.08-.08v-5.85c0-.13.07-.2.2-.2Z"/>
    <path class="cls-1" d="m406.73,105.39s-.01.05-.04.08c-.03.03-.07.04-.12.04h-1.63c-.09,0-.18-.04-.26-.12l-.68-.98s-.08-.04-.12,0c-.49.44-1,.76-1.54.96-.54.21-1.12.31-1.76.31-1.09,0-1.95-.29-2.58-.87s-.95-1.41-.95-2.5c0-.9.21-1.67.62-2.3s.97-1.23,1.69-1.8c.04-.01.05-.05.02-.1-.46-.66-.81-1.18-1.02-1.56s-.37-.7-.44-.97c-.07-.27-.11-.58-.11-.92,0-.98.29-1.77.88-2.36.58-.59,1.35-.89,2.29-.89s1.74.3,2.35.9.92,1.39.92,2.37c0,.81-.21,1.51-.63,2.1-.42.59-1,1.18-1.74,1.76-.04.01-.05.05-.02.1l.95,1.35,1.15,1.57c.03.05.07.05.12,0,.04-.08.11-.2.22-.36.32-.53.56-.94.72-1.23.03-.05.07-.09.12-.1.05-.01.11,0,.16.02l1.11.64c.11.07.13.16.08.28-.4.74-.86,1.48-1.37,2.21-.01.04-.01.08,0,.12l1.57,2.13s.04.07.04.12Zm-3.86-2.37s.05-.08.02-.12l-2.37-3.2s-.06-.04-.1,0c-.46.41-.82.81-1.07,1.2-.25.39-.38.83-.38,1.3,0,.54.16.99.47,1.32.31.34.76.51,1.34.51.69,0,1.39-.34,2.09-1.01Zm-2.78-9.44c-.25.29-.37.67-.37,1.14,0,.33.06.64.18.92.12.29.39.75.82,1.4.04.05.08.06.12.02.49-.41.86-.8,1.11-1.16.25-.36.38-.77.38-1.22s-.12-.82-.36-1.1c-.24-.29-.55-.43-.94-.43s-.7.14-.94.43Z"/>
    <path class="cls-1" d="m313.55,126.95v-13.53c0-.13.07-.2.2-.2h3.26c1.1,0,1.98.34,2.63,1.01.65.68.97,1.59.97,2.75v6.41c0,1.15-.32,2.07-.97,2.75-.65.68-1.52,1.01-2.63,1.01h-3.26c-.13,0-.2-.07-.2-.2Zm1.99-1.45l1.45-.02c.5,0,.91-.2,1.21-.59.3-.39.46-.93.48-1.6v-6.21c0-.68-.15-1.21-.46-1.61-.31-.4-.72-.6-1.23-.6h-1.45c-.05,0-.08.03-.08.08v10.46c0,.05.03.08.08.08Z"/>
    <path class="cls-1" d="m330.22,114.87h-4.48c-.05,0-.08.03-.08.08v4.32c0,.05.03.08.08.08h2.75c.13,0,.2.07.2.2v1.25c0,.13-.07.2-.2.2h-2.75c-.05,0-.08.03-.08.08v4.34c0,.05.03.08.08.08h4.48c.13,0,.2.07.2.2v1.25c0,.13-.07.2-.2.2h-6.27c-.13,0-.2-.07-.2-.2v-13.53c0-.13.07-.2.2-.2h6.27c.13,0,.2.07.2.2v1.25c0,.13-.07.2-.2.2Z"/>
    <path class="cls-1" d="m335.59,126.97l-2.87-13.53v-.04c0-.12.06-.18.18-.18h1.65c.13,0,.21.06.22.18l1.89,10.32s.03.04.04.04c.01,0,.03-.01.04-.04l1.85-10.32c.03-.12.1-.18.22-.18h1.59c.15,0,.21.07.18.22l-2.87,13.53c-.01.12-.09.18-.22.18h-1.69c-.12,0-.19-.06-.22-.18Z"/>
    <path class="cls-1" d="m349.9,114.87h-4.48c-.05,0-.08.03-.08.08v4.32c0,.05.03.08.08.08h2.75c.13,0,.2.07.2.2v1.25c0,.13-.07.2-.2.2h-2.75c-.05,0-.08.03-.08.08v4.34c0,.05.03.08.08.08h4.48c.13,0,.2.07.2.2v1.25c0,.13-.07.2-.2.2h-6.27c-.13,0-.2-.07-.2-.2v-13.53c0-.13.07-.2.2-.2h6.27c.13,0,.2.07.2.2v1.25c0,.13-.07.2-.2.2Z"/>
    <path class="cls-1" d="m353.02,126.95v-13.53c0-.13.07-.2.2-.2h1.51c.13,0,.2.07.2.2v12c0,.05.03.08.08.08h4.46c.13,0,.2.07.2.2v1.25c0,.13-.07.2-.2.2h-6.25c-.13,0-.2-.07-.2-.2Z"/>
    <path class="cls-1" d="m362.79,126.31c-.66-.66-.99-1.54-.99-2.65v-6.94c0-1.1.33-1.99.99-2.66.66-.67,1.54-1,2.63-1s1.99.34,2.66,1c.67.67,1,1.56,1,2.66v6.94c0,1.1-.33,1.98-1,2.65-.67.66-1.56,1-2.66,1s-1.96-.33-2.63-1Zm3.9-1.18c.32-.35.48-.81.48-1.38v-7.12c0-.57-.16-1.03-.48-1.38s-.74-.53-1.27-.53-.93.18-1.24.53-.47.81-.47,1.38v7.12c0,.57.16,1.03.47,1.38s.73.53,1.24.53.96-.18,1.27-.53Z"/>
    <path class="cls-1" d="m378.47,114.3c.63.74.94,1.7.94,2.89s-.3,2.11-.92,2.83c-.61.72-1.41,1.07-2.41,1.07h-1.87c-.05,0-.08.03-.08.08v5.77c0,.13-.07.2-.2.2h-1.51c-.13,0-.2-.07-.2-.2v-13.55c0-.13.07-.2.2-.2h3.56c1.02,0,1.85.37,2.48,1.1Zm-1.46,4.63c.33-.42.5-.98.5-1.7s-.17-1.31-.5-1.74c-.33-.43-.77-.65-1.31-.65h-1.47c-.05,0-.08.03-.08.08v4.56c0,.05.03.08.08.08h1.47c.54,0,.98-.21,1.31-.63Z"/>
    <path class="cls-1" d="m388.65,113.22h1.51c.13,0,.2.07.2.2v13.53c0,.13-.07.2-.2.2h-1.51c-.13,0-.2-.07-.2-.2v-9.87s0-.06-.03-.06-.04.01-.07.04l-1.91,3.56c-.04.09-.1.14-.18.14s-.14-.05-.18-.14l-1.89-3.54s-.05-.04-.07-.04-.03.02-.03.06v9.85c0,.13-.07.2-.2.2h-1.51c-.13,0-.2-.07-.2-.2v-13.53c0-.13.07-.2.2-.2h1.51c.09,0,.17.05.24.14l2.09,3.74s.03.02.06.02.05,0,.06-.02l2.07-3.74c.05-.09.13-.14.24-.14Z"/>
    <path class="cls-1" d="m400.23,114.87h-4.48c-.05,0-.08.03-.08.08v4.32c0,.05.03.08.08.08h2.75c.13,0,.2.07.2.2v1.25c0,.13-.07.2-.2.2h-2.75c-.05,0-.08.03-.08.08v4.34c0,.05.03.08.08.08h4.48c.13,0,.2.07.2.2v1.25c0,.13-.07.2-.2.2h-6.27c-.13,0-.2-.07-.2-.2v-13.53c0-.13.07-.2.2-.2h6.27c.13,0,.2.07.2.2v1.25c0,.13-.07.2-.2.2Z"/>
    <path class="cls-1" d="m409.16,113.22h1.49c.13,0,.2.07.2.2v13.53c0,.13-.07.2-.2.2h-1.71c-.11,0-.18-.05-.22-.16l-3.38-9.09s-.03-.04-.06-.03-.04.02-.04.05l.02,9.03c0,.13-.07.2-.2.2h-1.51c-.13,0-.2-.07-.2-.2v-13.53c0-.13.07-.2.2-.2h1.69c.11,0,.18.05.22.16l3.4,9.09s.03.06.06.05c.03,0,.04-.03.04-.07v-9.03c0-.13.07-.2.2-.2Z"/>
    <path class="cls-1" d="m421.21,113.42v1.25c0,.13-.07.2-.2.2h-2.61c-.05,0-.08.03-.08.08v12c0,.13-.07.2-.2.2h-1.51c-.13,0-.2-.07-.2-.2v-12c0-.05-.03-.08-.08-.08h-2.47c-.13,0-.2-.07-.2-.2v-1.25c0-.13.07-.2.2-.2h7.14c.13,0,.2.07.2.2Z"/>
    <path class="cls-1" d="m313.55,148.58v-13.53c0-.13.07-.2.2-.2h1.51c.13,0,.2.07.2.2v12c0,.05.03.08.08.08h4.46c.13,0,.2.07.2.2v1.25c0,.13-.07.2-.2.2h-6.25c-.13,0-.2-.07-.2-.2Z"/>
    <path class="cls-1" d="m328.55,148.6l-.44-2.29s0-.05-.03-.06c-.02-.01-.04-.02-.07-.02h-3.24s-.05,0-.07.02c-.02.01-.03.03-.03.06l-.42,2.29c-.01.12-.09.18-.22.18h-1.51c-.07,0-.12-.02-.15-.06s-.04-.09-.03-.16l2.96-13.53c.03-.12.1-.18.22-.18h1.77c.13,0,.21.06.22.18l2.98,13.53v.04c0,.12-.06.18-.18.18h-1.55c-.12,0-.19-.06-.22-.18Zm-3.48-3.88h2.65s.06-.03.06-.08l-1.35-7.06s-.03-.04-.04-.04c-.01,0-.03.01-.04.04l-1.33,7.06c0,.05.02.08.06.08Z"/>
    <path class="cls-1" d="m339.21,147.79c-.68.66-1.58.99-2.7.99h-3.32c-.13,0-.2-.07-.2-.2v-13.53c0-.13.07-.2.2-.2h3.04c1.21,0,2.15.32,2.83.94.68.63,1.02,1.55,1.02,2.76,0,1.43-.51,2.42-1.53,2.96-.07.04-.07.07-.02.1.53.32.95.76,1.24,1.33.3.57.45,1.25.45,2.03,0,1.21-.34,2.14-1.02,2.81Zm-4.31-11.2v4.22c0,.05.03.08.08.08h1.27c.62,0,1.11-.19,1.45-.57.34-.38.52-.91.52-1.58s-.17-1.25-.52-1.64c-.35-.39-.83-.59-1.45-.59h-1.27c-.05,0-.08.03-.08.08Zm2.89,9.91c.35-.41.53-1,.53-1.75s-.17-1.37-.52-1.8c-.35-.43-.82-.65-1.43-.65h-1.39c-.05,0-.08.03-.08.08v4.66c0,.05.03.08.08.08h1.37c.61,0,1.09-.21,1.44-.62Z"/>
  </g>
  <g>
    <g>
      <path class="cls-1" d="m214.87,91.79h6.38c.56,0,.84.28.84.84v57.1c0,.56-.28.84-.84.84h-6.38c-.56,0-.84-.28-.84-.84v-41.65c0-.17-.04-.25-.13-.25s-.18.06-.29.17l-8.06,15.03c-.17.39-.42.59-.76.59s-.59-.2-.76-.59l-7.98-14.95c-.11-.11-.21-.17-.29-.17s-.13.08-.13.25v41.57c0,.56-.28.84-.84.84h-6.38c-.56,0-.84-.28-.84-.84v-57.1c0-.56.28-.84.84-.84h6.38c.39,0,.73.2,1.01.59l8.82,15.79c.05.06.14.08.25.08s.2-.03.25-.08l8.73-15.79c.22-.39.56-.59,1.01-.59Z"/>
      <path class="cls-1" d="m261.4,92.63v5.29c0,.56-.28.84-.84.84h-11c-.22,0-.34.11-.34.34v50.64c0,.56-.28.84-.84.84h-6.38c-.56,0-.84-.28-.84-.84v-50.64c0-.13-.04-.23-.12-.28-.05-.04-.13-.06-.22-.06h-10.41c-.56,0-.84-.28-.84-.84v-5.29c0-.56.28-.84.84-.84h30.15c.56,0,.84.28.84.84Z"/>
      <path class="cls-1" d="m280.37,127.06v-6.05c0-.56.28-.84.84-.84h14.78l-15.62,6.89Zm15.62-6.89v16.37c0,4.42-1.4,7.98-4.2,10.67-2.8,2.69-6.47,4.03-11,4.03s-8.19-1.34-10.96-4.03c-2.77-2.69-4.16-6.24-4.16-10.67v-30.73c0-4.42,1.39-7.98,4.16-10.66,2.77-2.69,6.42-4.03,10.96-4.03s8.2,1.34,11,4.03c2.8,2.69,4.2,6.27,4.2,10.75v3.53c0,.56-.28.84-.84.84h-6.38c-.56,0-.84-.28-.84-.84v-3.7c0-2.3-.66-4.14-1.97-5.54-1.32-1.4-3.04-2.1-5.16-2.1s-3.85.7-5.17,2.1c-1.31,1.4-1.97,3.25-1.97,5.54v30.9c0,2.3.66,4.14,1.97,5.54,1.32,1.4,3.04,2.1,5.17,2.1s3.85-.7,5.16-2.1c1.31-1.4,1.97-3.25,1.97-5.54v-7.24l8.06-9.22Z"/>
    </g>
    <path class="cls-1" d="m153.42,107.94l-2.17-28.08-24.5,2.18-19.46-13.38-13.27,19.55-23.61,6.88,8.19,26.95-10.94,20.57,24.06,10.97,9.61,22.21,23.39-14.54,27.1,5.03.86-24.18,18.43-18.98-17.69-15.18Zm-2.24,34.28l-.6,16.5-3.62-18.94,4.22,2.43h0Zm-53.6,6.24l23.68,2.92-19.13,21.66-4.55-24.58Zm-24.93-52.03l25.05,1.68-9.44,27.5-15.61-29.18Zm77.01-14.5l-3.93,32.85-18.8-22.18,22.73-10.67Zm-59.6,47.57l29.7,20.19-22.58-2.79-7.12-17.4Zm32.63,16.84l-6.33-33.57,9.73,11.23-3.4,22.34Zm2.38-51.42l.99,26.75-10.03-11.58h0s9.04-15.17,9.04-15.17Zm-10.19,18.11l6.33,33.59-11.3-19.57,4.97-14.02Zm-6.23,14.85l11.82,20.47-29.68-20.16,17.86-.31Zm35.66-9.77l-20.31,29.58,3.56-23.37,16.75-6.21Zm-16.71,4.59l-1.04-28.21,18.45,21.76-17.41,6.45Zm-13.38-12.28l-5.13,14.44-8.82-25.28,13.95,10.84Zm-15.49-10.7l9.3,26.67-18.56.32,9.26-26.99Zm26.41,48.96l20.34-29.61-.31,18.79-20.03,10.82Zm-.34-56.26l-9.32,15.65-6.7-35.56,16.02,19.91Zm-25.19,4.73l7.69-24.37,6.7,35.57-14.39-11.2Zm-29.1,44.69l17.57-13.18,7.36,17.93-24.93-4.75Zm79.56,22.17l-25.7-13.21,21-11.34,4.7,24.55Zm18.11-40.57l-21.5,13.5.33-19.37,21.17,5.87Zm-20.62-7.28l5.25-6.77,14.16,12.15-19.41-5.38Zm4.37-8.09l-4.59,5.91,3.07-25.65,1.52,19.74Zm-24.69-24.56l19.16-1.71-19.81,9.31.65-7.6Zm-1.48-.32l-.62,7.22-13.85-17.18,14.47,9.96Zm-20.54-8.82l-6.65,21.05-3.21-6.51,9.86-14.54Zm-11.12,15.38l3.38,6.84-21.86-1.46,18.48-5.38Zm-19.81,12.94l12.18,22.75-6.43-3.83-5.75-18.92Zm5.41,20.47l7.37,4.39-16.14,12.09,8.77-16.48Zm15.57,24.94l-3.2,4-17.36-7.93,20.56,3.93Zm-2.1,5.04l3.05-3.8,3.51,18.97-6.56-15.17Zm30.58,6.95l-18.12,11.26,16.68-18.89,1.44,7.63Zm22.43,3.61l-20.96-3.89-1.43-7.63,22.39,11.52Zm5.63-22.86l-4.44-2.56,17.74-11.14-13.3,13.7Z"/>
  </g>
</svg>