<?xml version="1.0" encoding="UTF-8"?>
<svg id="icon_MTG" data-name="icon + MTG" xmlns="http://www.w3.org/2000/svg" xmlns:xlink="http://www.w3.org/1999/xlink" viewBox="0 0 490.46 240.31">
  <defs>
    <style>
      .cls-1 {
        fill: url(#linear-gradient-2);
      }

      .cls-2 {
        fill: url(#linear-gradient-17);
      }

      .cls-3 {
        fill: url(#linear-gradient-15);
      }

      .cls-4 {
        fill: url(#linear-gradient-18);
      }

      .cls-5 {
        fill: url(#linear-gradient-28);
      }

      .cls-6 {
        fill: url(#linear-gradient-14);
      }

      .cls-7 {
        fill: url(#linear-gradient-20);
      }

      .cls-8 {
        fill: url(#linear-gradient-6);
      }

      .cls-9 {
        fill: url(#linear-gradient-32);
      }

      .cls-10 {
        fill: url(#linear-gradient-11);
      }

      .cls-11 {
        fill: #074c6e;
      }

      .cls-12 {
        fill: url(#linear-gradient-10);
      }

      .cls-13 {
        fill: #249bd0;
      }

      .cls-14 {
        fill: url(#linear-gradient-16);
      }

      .cls-15 {
        fill: url(#linear-gradient-31);
      }

      .cls-16 {
        fill: url(#linear-gradient-21);
      }

      .cls-17 {
        fill: url(#linear-gradient-25);
      }

      .cls-18 {
        fill: url(#linear-gradient-5);
      }

      .cls-19 {
        fill: url(#linear-gradient-7);
      }

      .cls-20 {
        fill: url(#linear-gradient-24);
      }

      .cls-21 {
        fill: url(#linear-gradient-9);
      }

      .cls-22 {
        fill: url(#linear-gradient-22);
      }

      .cls-23 {
        fill: url(#linear-gradient-3);
      }

      .cls-24 {
        fill: url(#linear-gradient);
      }

      .cls-25 {
        fill: url(#linear-gradient-27);
      }

      .cls-26 {
        fill: url(#linear-gradient-29);
      }

      .cls-27 {
        fill: url(#linear-gradient-30);
      }

      .cls-28 {
        fill: url(#linear-gradient-23);
      }

      .cls-29 {
        fill: url(#linear-gradient-19);
      }

      .cls-30 {
        fill: url(#linear-gradient-4);
      }

      .cls-31 {
        fill: url(#linear-gradient-8);
      }

      .cls-32 {
        fill: url(#linear-gradient-12);
      }

      .cls-33 {
        fill: url(#linear-gradient-13);
      }

      .cls-34 {
        fill: url(#linear-gradient-26);
      }
    </style>
    <linearGradient id="linear-gradient" x1="39.41" y1="4.43" x2="39.33" y2="-18.28" gradientTransform="translate(98.04 168.89) rotate(-10.67)" gradientUnits="userSpaceOnUse">
      <stop offset="0" stop-color="#40c6f2"/>
      <stop offset="1" stop-color="#249bd0"/>
    </linearGradient>
    <linearGradient id="linear-gradient-2" x1="41.6" y1="-15.61" x2="41.47" y2="-49.32" gradientTransform="translate(98.04 168.89) rotate(-10.67)" gradientUnits="userSpaceOnUse">
      <stop offset="0" stop-color="#40c6f2"/>
      <stop offset=".32" stop-color="#249bd0"/>
      <stop offset=".63" stop-color="#2399ce"/>
      <stop offset=".74" stop-color="#2194c7"/>
      <stop offset=".82" stop-color="#1d8abb"/>
      <stop offset=".88" stop-color="#187caa"/>
      <stop offset=".93" stop-color="#126b94"/>
      <stop offset=".98" stop-color="#0a557a"/>
      <stop offset="1" stop-color="#074c6e"/>
    </linearGradient>
    <linearGradient id="linear-gradient-3" x1="42.03" y1="-42.8" x2="38.73" y2="5.12" gradientTransform="translate(98.04 168.89) rotate(-10.67)" gradientUnits="userSpaceOnUse">
      <stop offset="0" stop-color="#fff"/>
      <stop offset="1" stop-color="#40c6f2"/>
    </linearGradient>
    <linearGradient id="linear-gradient-4" x1="76.48" y1="-37.18" x2="52.63" y2="-17.07" xlink:href="#linear-gradient-3"/>
    <linearGradient id="linear-gradient-5" x1="54.61" y1="4.06" x2="54.49" y2="-27.79" xlink:href="#linear-gradient"/>
    <linearGradient id="linear-gradient-6" x1="65.15" y1="-23.3" x2="65.06" y2="-47.87" xlink:href="#linear-gradient"/>
    <linearGradient id="linear-gradient-7" x1="67.34" y1="-33.48" x2="67.26" y2="-54.13" gradientTransform="translate(98.04 168.89) rotate(-10.67)" gradientUnits="userSpaceOnUse">
      <stop offset="0" stop-color="#40c6f2"/>
      <stop offset="1" stop-color="#fff"/>
    </linearGradient>
    <linearGradient id="linear-gradient-8" x1="59.16" y1="-99.78" x2="62.5" y2="-48.72" xlink:href="#linear-gradient-3"/>
    <linearGradient id="linear-gradient-9" x1="67.44" y1="-78.27" x2="8.63" y2="-72.87" xlink:href="#linear-gradient-7"/>
    <linearGradient id="linear-gradient-10" x1="53.97" y1="-45.04" x2="53.81" y2="-84.85" xlink:href="#linear-gradient"/>
    <linearGradient id="linear-gradient-11" x1="35.04" y1="-72.31" x2="34.93" y2="-101.98" xlink:href="#linear-gradient"/>
    <linearGradient id="linear-gradient-12" x1="17276.17" y1="4.43" x2="17276.08" y2="-18.28" gradientTransform="translate(17089.54 -3032.19) rotate(169.33) scale(1 -1)" gradientUnits="userSpaceOnUse">
      <stop offset="0" stop-color="#40c6f2"/>
      <stop offset="1" stop-color="#074c6e"/>
    </linearGradient>
    <linearGradient id="linear-gradient-13" x1="17278.33" y1="-21.1" x2="17278.2" y2="-54.81" xlink:href="#linear-gradient-12"/>
    <linearGradient id="linear-gradient-14" x1="3.05" y1="32.22" x2="17.41" y2="-32.41" xlink:href="#linear-gradient-3"/>
    <linearGradient id="linear-gradient-15" x1="75.37" y1="90.44" x2="84.1" y2="164.88" gradientTransform="matrix(1,0,0,1,0,0)" xlink:href="#linear-gradient-3"/>
    <linearGradient id="linear-gradient-16" x1="-3.18" y1="10.29" x2="4.19" y2="-43.96" xlink:href="#linear-gradient-7"/>
    <linearGradient id="linear-gradient-17" x1="78.05" y1="153.74" x2="90.28" y2="120.19" gradientTransform="matrix(1,0,0,1,0,0)" xlink:href="#linear-gradient-3"/>
    <linearGradient id="linear-gradient-18" x1="17304.08" y1="-36.86" x2="17303.97" y2="-66.05" xlink:href="#linear-gradient-12"/>
    <linearGradient id="linear-gradient-19" x1="17298.51" y1="-45.07" x2="17298.36" y2="-84.88" xlink:href="#linear-gradient-12"/>
    <linearGradient id="linear-gradient-20" x1="17317.58" y1="-79.5" x2="17258.77" y2="-74.1" gradientTransform="translate(17089.54 -3032.19) rotate(169.33) scale(1 -1)" xlink:href="#linear-gradient"/>
    <linearGradient id="linear-gradient-21" x1="-33.5" y1="-38.66" x2="3.84" y2="-71.34" xlink:href="#linear-gradient-3"/>
    <linearGradient id="linear-gradient-22" x1="91.1" y1="105.48" x2="103.68" y2="67.91" gradientUnits="userSpaceOnUse">
      <stop offset="0" stop-color="#fff"/>
      <stop offset=".08" stop-color="#e4f7fd"/>
      <stop offset=".25" stop-color="#b2e8f9"/>
      <stop offset=".41" stop-color="#89dbf7"/>
      <stop offset=".57" stop-color="#69d2f4"/>
      <stop offset=".73" stop-color="#52cbf3"/>
      <stop offset=".87" stop-color="#44c7f2"/>
      <stop offset="1" stop-color="#40c6f2"/>
    </linearGradient>
    <linearGradient id="linear-gradient-23" x1="36.8" y1="-77.27" x2="2.02" y2="-74.08" gradientTransform="translate(98.04 168.89) rotate(-10.67)" gradientUnits="userSpaceOnUse">
      <stop offset="0" stop-color="#40c6f2"/>
      <stop offset=".48" stop-color="#249bd0"/>
      <stop offset="1" stop-color="#074c6e"/>
    </linearGradient>
    <linearGradient id="linear-gradient-24" x1="18.06" y1="-132.82" x2="34.58" y2="-59.61" xlink:href="#linear-gradient-3"/>
    <linearGradient id="linear-gradient-25" x1="26.44" y1="-56.78" x2="-16.94" y2="-52.8" xlink:href="#linear-gradient-7"/>
    <linearGradient id="linear-gradient-26" x1="48.84" y1="-4.83" x2="1.74" y2="-44.72" xlink:href="#linear-gradient-3"/>
    <linearGradient id="linear-gradient-27" x1="1525.23" y1="-56.78" x2="1481.86" y2="-52.8" gradientTransform="translate(1623.65 -118.52) rotate(169.33) scale(1 -1)" xlink:href="#linear-gradient-3"/>
    <linearGradient id="linear-gradient-28" x1="1547.63" y1="-4.83" x2="1500.53" y2="-44.72" gradientTransform="translate(1623.65 -118.52) rotate(169.33) scale(1 -1)" xlink:href="#linear-gradient-3"/>
    <linearGradient id="linear-gradient-29" x1="93.88" y1="109.05" x2="118.81" y2="115.11" gradientTransform="matrix(1,0,0,1,0,0)" xlink:href="#linear-gradient"/>
    <linearGradient id="linear-gradient-30" x1="127.77" y1="130.81" x2="99.11" y2="126.85" gradientTransform="matrix(1,0,0,1,0,0)" xlink:href="#linear-gradient-12"/>
    <linearGradient id="linear-gradient-31" x1="46.99" y1="-70.91" x2="28.99" y2="-44.52" xlink:href="#linear-gradient-3"/>
    <linearGradient id="linear-gradient-32" x1="31.27" y1="-28.11" x2="28.47" y2="-54.67" gradientTransform="translate(98.04 168.89) rotate(-10.67)" gradientUnits="userSpaceOnUse">
      <stop offset="0" stop-color="#40c6f2"/>
      <stop offset="1" stop-color="#249bd0"/>
    </linearGradient>
  </defs>
  <g>
    <g>
      <path class="cls-11" d="m213.84,90.79h6.38c.56,0,.84.28.84.84v57.1c0,.56-.28.84-.84.84h-6.38c-.56,0-.84-.28-.84-.84v-41.65c0-.17-.04-.25-.13-.25s-.18.06-.29.17l-8.06,15.03c-.17.39-.42.59-.76.59s-.59-.2-.76-.59l-7.98-14.95c-.11-.11-.21-.17-.29-.17s-.13.08-.13.25v41.57c0,.56-.28.84-.84.84h-6.38c-.56,0-.84-.28-.84-.84v-57.1c0-.56.28-.84.84-.84h6.38c.39,0,.73.2,1.01.59l8.82,15.79c.05.06.14.08.25.08s.2-.03.25-.08l8.73-15.79c.22-.39.56-.59,1.01-.59Z"/>
      <path class="cls-11" d="m260.37,91.63v5.29c0,.56-.28.84-.84.84h-11c-.22,0-.34.11-.34.34v50.64c0,.56-.28.84-.84.84h-6.38c-.56,0-.84-.28-.84-.84v-50.64c0-.13-.04-.23-.12-.28-.05-.04-.13-.06-.22-.06h-10.41c-.56,0-.84-.28-.84-.84v-5.29c0-.56.28-.84.84-.84h30.15c.56,0,.84.28.84.84Z"/>
      <path class="cls-11" d="m279.34,126.06v-6.05c0-.56.28-.84.84-.84h14.78l-15.62,6.89Zm15.62-6.89v16.37c0,4.42-1.4,7.98-4.2,10.67-2.8,2.69-6.47,4.03-11,4.03s-8.19-1.34-10.96-4.03c-2.77-2.69-4.16-6.24-4.16-10.67v-30.73c0-4.42,1.39-7.98,4.16-10.66,2.77-2.69,6.42-4.03,10.96-4.03s8.2,1.34,11,4.03c2.8,2.69,4.2,6.27,4.2,10.75v3.53c0,.56-.28.84-.84.84h-6.38c-.56,0-.84-.28-.84-.84v-3.7c0-2.3-.66-4.14-1.97-5.54-1.32-1.4-3.04-2.1-5.16-2.1s-3.85.7-5.17,2.1c-1.31,1.4-1.97,3.25-1.97,5.54v30.9c0,2.3.66,4.14,1.97,5.54,1.32,1.4,3.04,2.1,5.17,2.1s3.85-.7,5.16-2.1c1.31-1.4,1.97-3.25,1.97-5.54v-7.24l8.06-9.22Z"/>
    </g>
    <g>
      <g>
        <polygon class="cls-24" points="150.06 164.34 121.73 149.77 123.55 159.42 150.06 164.34"/>
        <polygon class="cls-1" points="145.24 115.54 144.88 137.27 121.73 149.77 145.24 115.54"/>
        <polygon class="cls-23" points="150.06 164.34 144.88 137.27 121.73 149.77 150.06 164.34"/>
        <polygon class="cls-30" points="168.99 122.13 150.91 140.74 144.88 137.27 168.99 122.13"/>
        <polygon class="cls-18" points="150.06 164.34 150.91 140.74 144.88 137.27 150.06 164.34"/>
        <polygon class="cls-8" points="145.24 115.54 144.88 137.27 168.99 122.13 145.24 115.54"/>
        <polygon class="cls-19" points="151.67 107.26 145.24 115.54 168.99 122.13 151.67 107.26"/>
        <polygon class="cls-31" points="149.53 79.63 151.67 107.26 145.24 115.54 149.53 79.63"/>
        <polygon class="cls-21" points="125.51 81.77 149.53 79.63 124.69 91.3 125.51 81.77"/>
        <polygon class="cls-12" points="145.24 115.54 149.53 79.63 124.69 91.3 145.24 115.54"/>
        <polygon class="cls-10" points="125.51 81.77 106.45 68.66 124.69 91.3 125.51 81.77"/>
      </g>
      <g>
        <polygon class="cls-32" points="100.64 173.65 121.73 149.77 123.55 159.42 100.64 173.65"/>
        <polygon class="cls-33" points="87.38 126.44 95.62 146.55 121.73 149.77 87.38 126.44"/>
        <polygon class="cls-6" points="100.64 173.65 95.62 146.55 121.73 149.77 100.64 173.65"/>
        <polygon class="cls-3" points="67.66 141.22 91.27 151.98 95.62 146.55 67.66 141.22"/>
        <polygon class="cls-14" points="100.64 173.65 91.27 151.98 95.62 146.55 100.64 173.65"/>
        <polygon class="cls-2" points="87.38 126.44 95.62 146.55 67.66 141.22 87.38 126.44"/>
        <polygon class="cls-4" points="78.38 121.07 87.38 126.44 67.66 141.22 78.38 121.07"/>
        <polygon class="cls-29" points="70.31 94.55 78.38 121.07 87.38 126.44 70.31 94.55"/>
        <polygon class="cls-7" points="93.47 87.81 70.31 94.55 97.69 96.38 93.47 87.81"/>
        <polygon class="cls-16" points="87.38 126.44 70.31 94.55 97.69 96.38 87.38 126.44"/>
        <polygon class="cls-22" points="93.47 87.81 106.45 68.66 97.69 96.38 93.47 87.81"/>
      </g>
      <polygon class="cls-28" points="106.45 68.66 97.69 96.38 114.07 109.12 106.45 68.66"/>
      <polygon class="cls-20" points="124.69 91.3 114.07 109.12 106.45 68.66 124.69 91.3"/>
      <polygon class="cls-17" points="97.69 96.38 87.38 126.44 108.05 126.08 97.69 96.38"/>
      <polygon class="cls-34" points="121.73 149.77 108.05 126.08 87.38 126.44 121.73 149.77"/>
      <polygon class="cls-25" points="124.69 91.3 145.24 115.54 125.85 122.73 124.69 91.3"/>
      <polygon class="cls-5" points="121.73 149.77 125.85 122.73 145.24 115.54 121.73 149.77"/>
      <polygon class="cls-26" points="97.69 96.38 114.07 109.12 108.05 126.08 97.69 96.38"/>
      <polygon class="cls-27" points="121.73 149.77 114.07 109.12 108.05 126.08 121.73 149.77"/>
      <polygon class="cls-15" points="124.69 91.3 114.07 109.12 125.85 122.73 124.69 91.3"/>
      <polygon class="cls-9" points="121.73 149.77 114.07 109.12 125.85 122.73 121.73 149.77"/>
    </g>
  </g>
  <g>
    <path class="cls-13" d="m318.84,105.35l-1.83-5.93s-.04-.06-.08-.06h-1.39c-.05,0-.08.03-.08.08v5.87c0,.13-.07.2-.2.2h-1.51c-.13,0-.2-.07-.2-.2v-13.53c0-.13.07-.2.2-.2h3.56c.68,0,1.27.17,1.79.5.52.33.92.8,1.2,1.4s.43,1.29.43,2.06c0,.84-.17,1.56-.52,2.18-.34.62-.82,1.06-1.41,1.34-.04.04-.05.08-.04.12l2.03,6.11.02.08c0,.09-.06.14-.18.14h-1.55c-.12,0-.2-.05-.24-.16Zm-3.38-12.04v4.46c0,.05.03.08.08.08h1.47c.54,0,.98-.21,1.31-.63.33-.42.5-.97.5-1.66s-.17-1.28-.5-1.7c-.33-.42-.77-.63-1.31-.63h-1.47c-.05,0-.08.03-.08.08Z"/>
    <path class="cls-13" d="m330.02,93.23h-4.48c-.05,0-.08.03-.08.08v4.32c0,.05.03.08.08.08h2.75c.13,0,.2.07.2.2v1.25c0,.13-.07.2-.2.2h-2.75c-.05,0-.08.03-.08.08v4.34c0,.05.03.08.08.08h4.48c.13,0,.2.07.2.2v1.25c0,.13-.07.2-.2.2h-6.27c-.13,0-.2-.07-.2-.2v-13.53c0-.13.07-.2.2-.2h6.27c.13,0,.2.07.2.2v1.25c0,.13-.07.2-.2.2Z"/>
    <path class="cls-13" d="m333.63,104.68c-.64-.66-.96-1.51-.96-2.58v-.52c0-.13.07-.2.2-.2h1.47c.13,0,.2.07.2.2v.42c0,.61.15,1.1.46,1.46.31.36.7.55,1.17.55s.87-.18,1.18-.53.47-.81.47-1.38c0-.38-.08-.72-.25-1.01-.17-.29-.38-.55-.66-.79s-.71-.57-1.32-1.02c-.68-.5-1.21-.94-1.59-1.29-.38-.36-.71-.79-.97-1.29-.27-.5-.4-1.09-.4-1.77,0-1.07.32-1.93.96-2.56s1.47-.95,2.49-.95,1.91.34,2.56,1.01c.64.68.96,1.57.96,2.67v.5c0,.13-.07.2-.2.2h-1.47c-.13,0-.2-.07-.2-.2v-.54c0-.6-.15-1.08-.46-1.44-.31-.36-.7-.55-1.19-.55-.46,0-.84.16-1.13.49-.29.33-.44.78-.44,1.36,0,.53.15.98.44,1.34.29.36.86.85,1.69,1.46.8.6,1.4,1.08,1.8,1.45s.72.78.94,1.22.33.97.33,1.58c0,1.11-.33,2.01-.97,2.68-.65.67-1.5,1-2.55,1s-1.89-.33-2.54-.99Z"/>
    <path class="cls-13" d="m348.96,93.23h-4.48c-.05,0-.08.03-.08.08v4.32c0,.05.03.08.08.08h2.75c.13,0,.2.07.2.2v1.25c0,.13-.07.2-.2.2h-2.75c-.05,0-.08.03-.08.08v4.34c0,.05.03.08.08.08h4.48c.13,0,.2.07.2.2v1.25c0,.13-.07.2-.2.2h-6.27c-.13,0-.2-.07-.2-.2v-13.53c0-.13.07-.2.2-.2h6.27c.13,0,.2.07.2.2v1.25c0,.13-.07.2-.2.2Z"/>
    <path class="cls-13" d="m357.73,105.33l-.44-2.29s0-.05-.03-.06c-.02-.01-.04-.02-.07-.02h-3.24s-.05,0-.07.02c-.02.01-.03.03-.03.06l-.42,2.29c-.01.12-.09.18-.22.18h-1.51c-.07,0-.12-.02-.15-.06-.03-.04-.04-.09-.03-.16l2.96-13.53c.03-.12.1-.18.22-.18h1.77c.13,0,.21.06.22.18l2.98,13.53v.04c0,.12-.06.18-.18.18h-1.55c-.12,0-.19-.06-.22-.18Zm-3.48-3.88h2.65s.06-.03.06-.08l-1.35-7.06s-.03-.04-.04-.04c-.01,0-.03.01-.04.04l-1.33,7.06c0,.05.02.08.06.08Z"/>
    <path class="cls-13" d="m367.46,105.35l-1.83-5.93s-.04-.06-.08-.06h-1.39c-.05,0-.08.03-.08.08v5.87c0,.13-.07.2-.2.2h-1.51c-.13,0-.2-.07-.2-.2v-13.53c0-.13.07-.2.2-.2h3.56c.68,0,1.27.17,1.79.5.52.33.92.8,1.2,1.4s.43,1.29.43,2.06c0,.84-.17,1.56-.52,2.18-.34.62-.82,1.06-1.41,1.34-.04.04-.05.08-.04.12l2.03,6.11.02.08c0,.09-.06.14-.18.14h-1.55c-.12,0-.2-.05-.24-.16Zm-3.38-12.04v4.46c0,.05.03.08.08.08h1.47c.54,0,.98-.21,1.31-.63.33-.42.5-.97.5-1.66s-.17-1.28-.5-1.7c-.33-.42-.77-.63-1.31-.63h-1.47c-.05,0-.08.03-.08.08Z"/>
    <path class="cls-13" d="m372.88,104.68c-.66-.66-.98-1.53-.98-2.62v-7.06c0-1.09.33-1.96.98-2.61.66-.65,1.52-.98,2.6-.98s1.96.33,2.62.98c.66.65.99,1.52.99,2.61v.32c0,.13-.07.2-.2.2l-1.51.08c-.13,0-.2-.07-.2-.2v-.52c0-.54-.16-.98-.47-1.31-.31-.33-.72-.5-1.22-.5s-.91.17-1.21.5c-.31.33-.46.77-.46,1.31v7.32c0,.54.15.98.46,1.31.3.33.71.5,1.21.5s.91-.17,1.22-.5c.31-.33.47-.77.47-1.31v-.52c0-.13.07-.2.2-.2l1.51.08c.13,0,.2.07.2.2v.3c0,1.09-.33,1.96-.99,2.62-.66.66-1.53.99-2.62.99s-1.94-.33-2.6-.99Z"/>
    <path class="cls-13" d="m387.43,91.58h1.51c.13,0,.2.07.2.2v13.53c0,.13-.07.2-.2.2h-1.51c-.13,0-.2-.07-.2-.2v-5.87c0-.05-.03-.08-.08-.08h-3c-.05,0-.08.03-.08.08v5.87c0,.13-.07.2-.2.2h-1.51c-.13,0-.2-.07-.2-.2v-13.53c0-.13.07-.2.2-.2h1.51c.13,0,.2.07.2.2v5.85c0,.05.03.08.08.08h3c.05,0,.08-.03.08-.08v-5.85c0-.13.07-.2.2-.2Z"/>
    <path class="cls-13" d="m406.73,105.39s-.01.05-.04.08c-.03.03-.07.04-.12.04h-1.63c-.09,0-.18-.04-.26-.12l-.68-.98s-.08-.04-.12,0c-.49.44-1,.76-1.54.96-.54.21-1.12.31-1.76.31-1.09,0-1.95-.29-2.58-.87s-.95-1.41-.95-2.5c0-.9.21-1.67.62-2.3s.97-1.23,1.69-1.8c.04-.01.05-.05.02-.1-.46-.66-.81-1.18-1.02-1.56s-.37-.7-.44-.97c-.07-.27-.11-.58-.11-.92,0-.98.29-1.77.88-2.36.58-.59,1.35-.89,2.29-.89s1.74.3,2.35.9.92,1.39.92,2.37c0,.81-.21,1.51-.63,2.1-.42.59-1,1.18-1.74,1.76-.04.01-.05.05-.02.1l.95,1.35,1.15,1.57c.03.05.07.05.12,0,.04-.08.11-.2.22-.36.32-.53.56-.94.72-1.23.03-.05.07-.09.12-.1.05-.01.11,0,.16.02l1.11.64c.11.07.13.16.08.28-.4.74-.86,1.48-1.37,2.21-.01.04-.01.08,0,.12l1.57,2.13s.04.07.04.12Zm-3.86-2.37s.05-.08.02-.12l-2.37-3.2s-.06-.04-.1,0c-.46.41-.82.81-1.07,1.2-.25.39-.38.83-.38,1.3,0,.54.16.99.47,1.32.31.34.76.51,1.34.51.69,0,1.39-.34,2.09-1.01Zm-2.78-9.44c-.25.29-.37.67-.37,1.14,0,.33.06.64.18.92.12.29.39.75.82,1.4.04.05.08.06.12.02.49-.41.86-.8,1.11-1.16.25-.36.38-.77.38-1.22s-.12-.82-.36-1.1c-.24-.29-.55-.43-.94-.43s-.7.14-.94.43Z"/>
    <path class="cls-13" d="m313.55,126.95v-13.53c0-.13.07-.2.2-.2h3.26c1.1,0,1.98.34,2.63,1.01.65.68.97,1.59.97,2.75v6.41c0,1.15-.32,2.07-.97,2.75-.65.68-1.52,1.01-2.63,1.01h-3.26c-.13,0-.2-.07-.2-.2Zm1.99-1.45l1.45-.02c.5,0,.91-.2,1.21-.59.3-.39.46-.93.48-1.6v-6.21c0-.68-.15-1.21-.46-1.61-.31-.4-.72-.6-1.23-.6h-1.45c-.05,0-.08.03-.08.08v10.46c0,.05.03.08.08.08Z"/>
    <path class="cls-13" d="m330.22,114.87h-4.48c-.05,0-.08.03-.08.08v4.32c0,.05.03.08.08.08h2.75c.13,0,.2.07.2.2v1.25c0,.13-.07.2-.2.2h-2.75c-.05,0-.08.03-.08.08v4.34c0,.05.03.08.08.08h4.48c.13,0,.2.07.2.2v1.25c0,.13-.07.2-.2.2h-6.27c-.13,0-.2-.07-.2-.2v-13.53c0-.13.07-.2.2-.2h6.27c.13,0,.2.07.2.2v1.25c0,.13-.07.2-.2.2Z"/>
    <path class="cls-13" d="m335.59,126.97l-2.87-13.53v-.04c0-.12.06-.18.18-.18h1.65c.13,0,.21.06.22.18l1.89,10.32s.03.04.04.04c.01,0,.03-.01.04-.04l1.85-10.32c.03-.12.1-.18.22-.18h1.59c.15,0,.21.07.18.22l-2.87,13.53c-.01.12-.09.18-.22.18h-1.69c-.12,0-.19-.06-.22-.18Z"/>
    <path class="cls-13" d="m349.9,114.87h-4.48c-.05,0-.08.03-.08.08v4.32c0,.05.03.08.08.08h2.75c.13,0,.2.07.2.2v1.25c0,.13-.07.2-.2.2h-2.75c-.05,0-.08.03-.08.08v4.34c0,.05.03.08.08.08h4.48c.13,0,.2.07.2.2v1.25c0,.13-.07.2-.2.2h-6.27c-.13,0-.2-.07-.2-.2v-13.53c0-.13.07-.2.2-.2h6.27c.13,0,.2.07.2.2v1.25c0,.13-.07.2-.2.2Z"/>
    <path class="cls-13" d="m353.02,126.95v-13.53c0-.13.07-.2.2-.2h1.51c.13,0,.2.07.2.2v12c0,.05.03.08.08.08h4.46c.13,0,.2.07.2.2v1.25c0,.13-.07.2-.2.2h-6.25c-.13,0-.2-.07-.2-.2Z"/>
    <path class="cls-13" d="m362.79,126.31c-.66-.66-.99-1.54-.99-2.65v-6.94c0-1.1.33-1.99.99-2.66.66-.67,1.54-1,2.63-1s1.99.34,2.66,1c.67.67,1,1.56,1,2.66v6.94c0,1.1-.33,1.98-1,2.65-.67.66-1.56,1-2.66,1s-1.96-.33-2.63-1Zm3.9-1.18c.32-.35.48-.81.48-1.38v-7.12c0-.57-.16-1.03-.48-1.38s-.74-.53-1.27-.53-.93.18-1.24.53-.47.81-.47,1.38v7.12c0,.57.16,1.03.47,1.38s.73.53,1.24.53.96-.18,1.27-.53Z"/>
    <path class="cls-13" d="m378.47,114.3c.63.74.94,1.7.94,2.89s-.3,2.11-.92,2.83c-.61.72-1.41,1.07-2.41,1.07h-1.87c-.05,0-.08.03-.08.08v5.77c0,.13-.07.2-.2.2h-1.51c-.13,0-.2-.07-.2-.2v-13.55c0-.13.07-.2.2-.2h3.56c1.02,0,1.85.37,2.48,1.1Zm-1.46,4.63c.33-.42.5-.98.5-1.7s-.17-1.31-.5-1.74c-.33-.43-.77-.65-1.31-.65h-1.47c-.05,0-.08.03-.08.08v4.56c0,.05.03.08.08.08h1.47c.54,0,.98-.21,1.31-.63Z"/>
    <path class="cls-13" d="m388.65,113.22h1.51c.13,0,.2.07.2.2v13.53c0,.13-.07.2-.2.2h-1.51c-.13,0-.2-.07-.2-.2v-9.87s0-.06-.03-.06-.04.01-.07.04l-1.91,3.56c-.04.09-.1.14-.18.14s-.14-.05-.18-.14l-1.89-3.54s-.05-.04-.07-.04-.03.02-.03.06v9.85c0,.13-.07.2-.2.2h-1.51c-.13,0-.2-.07-.2-.2v-13.53c0-.13.07-.2.2-.2h1.51c.09,0,.17.05.24.14l2.09,3.74s.03.02.06.02.05,0,.06-.02l2.07-3.74c.05-.09.13-.14.24-.14Z"/>
    <path class="cls-13" d="m400.23,114.87h-4.48c-.05,0-.08.03-.08.08v4.32c0,.05.03.08.08.08h2.75c.13,0,.2.07.2.2v1.25c0,.13-.07.2-.2.2h-2.75c-.05,0-.08.03-.08.08v4.34c0,.05.03.08.08.08h4.48c.13,0,.2.07.2.2v1.25c0,.13-.07.2-.2.2h-6.27c-.13,0-.2-.07-.2-.2v-13.53c0-.13.07-.2.2-.2h6.27c.13,0,.2.07.2.2v1.25c0,.13-.07.2-.2.2Z"/>
    <path class="cls-13" d="m409.16,113.22h1.49c.13,0,.2.07.2.2v13.53c0,.13-.07.2-.2.2h-1.71c-.11,0-.18-.05-.22-.16l-3.38-9.09s-.03-.04-.06-.03-.04.02-.04.05l.02,9.03c0,.13-.07.2-.2.2h-1.51c-.13,0-.2-.07-.2-.2v-13.53c0-.13.07-.2.2-.2h1.69c.11,0,.18.05.22.16l3.4,9.09s.03.06.06.05c.03,0,.04-.03.04-.07v-9.03c0-.13.07-.2.2-.2Z"/>
    <path class="cls-13" d="m421.21,113.42v1.25c0,.13-.07.2-.2.2h-2.61c-.05,0-.08.03-.08.08v12c0,.13-.07.2-.2.2h-1.51c-.13,0-.2-.07-.2-.2v-12c0-.05-.03-.08-.08-.08h-2.47c-.13,0-.2-.07-.2-.2v-1.25c0-.13.07-.2.2-.2h7.14c.13,0,.2.07.2.2Z"/>
    <path class="cls-13" d="m313.55,148.58v-13.53c0-.13.07-.2.2-.2h1.51c.13,0,.2.07.2.2v12c0,.05.03.08.08.08h4.46c.13,0,.2.07.2.2v1.25c0,.13-.07.2-.2.2h-6.25c-.13,0-.2-.07-.2-.2Z"/>
    <path class="cls-13" d="m328.55,148.6l-.44-2.29s0-.05-.03-.06c-.02-.01-.04-.02-.07-.02h-3.24s-.05,0-.07.02c-.02.01-.03.03-.03.06l-.42,2.29c-.01.12-.09.18-.22.18h-1.51c-.07,0-.12-.02-.15-.06s-.04-.09-.03-.16l2.96-13.53c.03-.12.1-.18.22-.18h1.77c.13,0,.21.06.22.18l2.98,13.53v.04c0,.12-.06.18-.18.18h-1.55c-.12,0-.19-.06-.22-.18Zm-3.48-3.88h2.65s.06-.03.06-.08l-1.35-7.06s-.03-.04-.04-.04c-.01,0-.03.01-.04.04l-1.33,7.06c0,.05.02.08.06.08Z"/>
    <path class="cls-13" d="m339.2,147.79c-.68.66-1.58.99-2.7.99h-3.32c-.13,0-.2-.07-.2-.2v-13.53c0-.13.07-.2.2-.2h3.04c1.21,0,2.15.32,2.83.94.68.63,1.02,1.55,1.02,2.76,0,1.43-.51,2.42-1.53,2.96-.07.04-.07.07-.02.1.53.32.95.76,1.24,1.33.3.57.45,1.25.45,2.03,0,1.21-.34,2.14-1.02,2.81Zm-4.31-11.2v4.22c0,.05.03.08.08.08h1.27c.62,0,1.11-.19,1.45-.57.34-.38.52-.91.52-1.58s-.17-1.25-.52-1.64c-.35-.39-.83-.59-1.45-.59h-1.27c-.05,0-.08.03-.08.08Zm2.89,9.91c.35-.41.53-1,.53-1.75s-.17-1.37-.52-1.8c-.35-.43-.82-.65-1.43-.65h-1.39c-.05,0-.08.03-.08.08v4.66c0,.05.03.08.08.08h1.37c.61,0,1.09-.21,1.44-.62Z"/>
  </g>
</svg>